<svg width="133" height="79" viewBox="0 0 133 79" fill="none" xmlns="http://www.w3.org/2000/svg">
<path d="M39.4676 62.0946L46.7187 57.148L37.9118 57.3901L40.8651 49.1523L33.8842 54.485L31.4056 46.0967L28.9205 54.485L21.9396 49.1523L24.8928 57.3901L16.0859 57.148L23.3371 62.0946L16.0859 67.0346L24.8928 66.7925L21.9396 75.0303L28.927 69.6977L31.4122 78.086L33.904 69.6977L40.8848 75.0303L37.9316 66.7925L46.7385 67.0346L39.4676 62.0946ZM37.49 70.3847L33.0074 66.943L31.4188 72.3411L29.8104 66.943L25.3542 70.3847L27.2131 65.0717L21.5968 65.2418L26.2111 62.0749L21.5968 58.9081L27.2065 59.0782L25.3476 53.7783L29.784 57.22L31.4056 51.8219L32.9877 57.22L37.4768 53.7783L35.5783 59.0651L41.2276 58.9081L36.5671 62.0684L41.2276 65.2418L35.5783 65.0652L37.49 70.3847Z" fill="#CE2027"/>
<path d="M32.8175 62.0942L34.1359 61.2174L32.5604 61.2632L33.0877 59.8041L31.8353 60.7463L31.387 59.2676L30.9453 60.7463L29.6665 59.8368L30.2004 61.2894L28.625 61.2501L29.9434 62.1204L28.625 62.9906L30.2004 62.9514L29.6731 64.3974L30.9256 63.4617L31.3738 64.9404L31.8155 63.4617L33.068 64.3974L32.5406 62.9514H34.1161L32.8175 62.0942ZM31.3738 62.9972C31.1926 62.9959 31.0159 62.9412 30.8659 62.8402C30.716 62.7392 30.5995 62.5963 30.5314 62.4297C30.4633 62.263 30.4465 62.08 30.4831 61.9038C30.5197 61.7277 30.6081 61.5663 30.7372 61.44C30.8663 61.3137 31.0302 61.2282 31.2081 61.1944C31.3861 61.1606 31.5702 61.1799 31.7371 61.2499C31.9041 61.3199 32.0463 61.4375 32.1459 61.5878C32.2455 61.7381 32.298 61.9143 32.2967 62.0942C32.2932 62.3349 32.1945 62.5645 32.0218 62.7335C31.8491 62.9025 31.6163 62.9972 31.3738 62.9972Z" fill="#CE2027"/>
<path d="M29.7926 66.9427L29.1993 65.0321L27.2217 65.091L27.8809 63.2196L26.2461 62.0942L27.8809 60.9688L27.2217 59.0975L29.1993 59.1564L29.7926 57.2393L31.3746 58.4563L32.9963 57.2393L33.5566 59.1433L35.5869 59.0844L34.9277 60.9557L36.5954 62.0877L34.9343 63.2066L35.5935 65.0844L33.5698 65.0255L33.0094 66.9427L31.3746 65.7257L29.7926 66.9427ZM29.6739 64.3712L30.1288 65.8369L31.3746 64.9143L32.6205 65.8369L33.0688 64.3712H34.6311L34.1169 62.9317L35.3957 62.055L34.1169 61.1913L34.6245 59.7387L33.0688 59.7779L32.6073 58.3123L31.368 59.2414L30.1156 58.3123L29.6673 59.7845L28.105 59.7518L28.6258 61.1978L27.3404 62.068L28.6258 62.9383L28.1116 64.3843L29.6739 64.3712Z" fill="#CE2027"/>
<path d="M35.3769 74.4674L31.3096 72.5961L27.2226 74.4216L25.0341 70.535L20.6505 69.6517L21.1844 65.2351L18.1719 61.9635L21.2173 58.692L20.7361 54.2688L25.133 53.4051L27.3544 49.5513L31.4217 51.416L35.5087 49.5905L37.6972 53.4771L42.0809 54.3866L41.5535 58.8032L44.5594 62.0748L41.514 65.3463L41.9952 69.7695L37.6049 70.6331L35.3769 74.4674ZM31.3096 72.0661L35.1725 73.8458L37.2885 70.1751L41.4678 69.3572L41.0064 65.1566L43.9002 62.0551L41.0459 58.921L41.5469 54.7269L37.3808 53.8632L35.3043 50.1728L31.4217 51.9068L27.5588 50.1336L25.4428 53.7977L21.2701 54.6025L21.7315 58.8032L18.8377 61.9046L21.6986 65.0388L21.191 69.2329L25.3571 70.0966L27.4335 73.7869L31.3096 72.0661Z" fill="#CE2027"/>
<path d="M11.3154 65.7713L31.4077 23.3785L51.4999 65.7713H62.5809L31.4077 0L0.234375 65.7713H11.3154Z" fill="white"/>
<path d="M65.6367 59.2348L66.5333 58.8095L66.8233 53.7124L66.2762 53.0581V52.9927H67.6341L69.8688 57.0494L72.1364 52.9927H73.3559V53.1039H72.7692L73.1252 59.1825H74.0151V59.2937H71.1674V59.1825H72.0375L71.7343 53.948L69.3414 58.1814H69.2755L66.9354 53.948L66.6321 59.1825H67.7329V59.2937H65.6367V59.2348Z" fill="#CE2027"/>
<path d="M74.418 59.2352L75.2749 58.8295V53.1239H74.4509V53.0127H77.2129V53.0781L76.3956 53.4773V59.1828H77.2525V59.2941H74.418V59.2352Z" fill="#CE2027"/>
<path d="M80.9007 53.0133C81.5111 52.9963 82.1174 53.1171 82.6739 53.3666C83.1397 53.5838 83.5248 53.9409 83.7748 54.3873C84.0345 54.8743 84.1617 55.4201 84.1439 55.9708C84.1591 56.5863 84.0258 57.1965 83.755 57.7505C83.4982 58.2463 83.0929 58.651 82.5948 58.9086C82.0212 59.1954 81.3844 59.3348 80.7425 59.3143H77.7695V59.2358L78.6265 58.8301V53.1245H77.8091V53.0133H80.9007ZM80.7952 59.2031C81.2356 59.2227 81.6718 59.111 82.0477 58.8824C82.388 58.6469 82.6406 58.3065 82.7662 57.9141C82.9346 57.3652 83.0125 56.7929 82.9969 56.2194C83.0106 55.6429 82.9282 55.0681 82.753 54.5182C82.6207 54.106 82.3656 53.7432 82.0213 53.4779C81.6723 53.2356 81.2539 53.1117 80.8282 53.1245H79.7142V59.0133C80.0624 59.1294 80.4278 59.1869 80.7952 59.1834V59.2031Z" fill="#CE2027"/>
<path d="M87.9827 53.0132C88.5932 52.9953 89.1997 53.1162 89.756 53.3665C90.2217 53.5837 90.6068 53.9408 90.8568 54.3872C91.1165 54.8742 91.2438 55.42 91.226 55.9707C91.2443 56.5865 91.1108 57.1975 90.8371 57.7504C90.5821 58.2475 90.1763 58.6527 89.6769 58.9086C89.1035 59.1958 88.4665 59.3353 87.8245 59.3142H84.8516V59.2357L85.7085 58.83V53.1244H84.8911V53.0132H87.9827ZM87.8509 59.1834C88.2913 59.203 88.7275 59.0913 89.1034 58.8627C89.4437 58.6272 89.6962 58.2869 89.8219 57.8944C89.9902 57.3455 90.0682 56.7732 90.0526 56.1997C90.069 55.623 89.9865 55.0478 89.8087 54.4985C89.6763 54.088 89.4239 53.7258 89.0836 53.4581C88.7327 53.2146 88.3117 53.0906 87.8838 53.1048H86.7962V58.9936C87.135 59.1136 87.4912 59.1776 87.8509 59.1834Z" fill="#CE2027"/>
<path d="M91.9522 59.2352L92.8025 58.8295V53.1239H91.9851V53.0127H95.2218V53.1239H93.9034V59.1828H96.1314L97.3246 57.2199H97.4235L97.1598 59.2875H91.9258L91.9522 59.2352Z" fill="#CE2027"/>
<path d="M98.0457 59.2352L98.9026 58.8295V53.1239H98.0786V53.0127H103.28L103.365 54.7597H103.286L102.33 53.1239H99.9903V55.9767H101.309L101.862 55.0083H101.941V57.0694H101.829V56.1076H99.9837V59.1828H102.462L103.636 57.4424H103.728L103.484 59.3006H98.0391L98.0457 59.2352Z" fill="#CE2027"/>
<path d="M106.886 59.2352L107.742 58.8295V53.1239H106.918V53.0127H112.12L112.205 54.7597H112.126L111.177 53.1239H108.83V55.9767H110.149L110.702 55.0083H110.781V57.0694H110.669V56.1076H108.824V59.1828H111.302L112.475 57.4424H112.568L112.324 59.3006H106.879L106.886 59.2352Z" fill="#CE2027"/>
<path d="M112.995 59.1825H113.773L115.961 53.6143L115.447 53.0581V52.9927H116.818L119.323 59.1825H120.101V59.2937H116.95V59.1825H118.176L116.027 53.7713L114.05 58.7506L114.966 59.2152V59.2937H112.988L112.995 59.1825ZM114.86 56.5063H117.702L117.754 56.6176H114.814L114.86 56.5063Z" fill="#CE2027"/>
<path d="M123.018 59.4179C122.181 59.4198 121.347 59.312 120.539 59.0973L121.099 57.527H121.172L121.455 58.8749C121.686 59.0051 121.931 59.1062 122.187 59.1759C122.496 59.2623 122.816 59.3042 123.136 59.3002C123.597 59.3289 124.055 59.2219 124.455 58.9927C124.601 58.9053 124.721 58.7812 124.803 58.633C124.885 58.4848 124.926 58.3177 124.923 58.1486C124.928 57.9458 124.881 57.7451 124.784 57.5663C124.671 57.3856 124.515 57.2351 124.329 57.1279C124.064 56.9702 123.781 56.8449 123.486 56.7549L122.325 56.3754C121.871 56.2483 121.456 56.0098 121.119 55.6819C120.861 55.4071 120.722 55.0431 120.73 54.6676C120.716 54.4115 120.77 54.1562 120.885 53.9268C121.001 53.6973 121.175 53.5017 121.389 53.359C121.97 53.0188 122.641 52.8593 123.314 52.901C124.068 52.8994 124.819 52.994 125.549 53.1824L125.068 54.6219H124.982L124.659 53.3787C124.452 53.2646 124.23 53.1788 124 53.1235C123.727 53.0513 123.445 53.0161 123.163 53.0188C122.723 52.9935 122.286 53.0959 121.904 53.3133C121.763 53.4013 121.648 53.5244 121.571 53.6702C121.493 53.816 121.456 53.9794 121.462 54.1442C121.457 54.3282 121.505 54.5096 121.6 54.6676C121.722 54.8389 121.879 54.9818 122.062 55.0864C122.337 55.2383 122.626 55.3632 122.925 55.4594L124.092 55.8389C124.565 55.9735 124.997 56.2205 125.351 56.5586C125.505 56.7291 125.62 56.9308 125.688 57.1497C125.756 57.3687 125.776 57.5996 125.745 57.8267C125.714 58.0538 125.634 58.2715 125.51 58.4649C125.387 58.6583 125.222 58.8227 125.028 58.9469C124.416 59.2893 123.719 59.4526 123.018 59.4179Z" fill="#CE2027"/>
<path d="M127.726 59.2347L128.629 58.8291V53.1235H127.39L126.401 54.9621H126.309L126.381 52.9991H131.964L132.03 54.9621H131.945L130.956 53.1235H129.717V59.1824H130.613V59.2936H127.726V59.2347Z" fill="#CE2027"/>
<path d="M87.929 36.0333C87.5979 36.0398 87.2708 35.9609 86.9797 35.8043C86.7106 35.6563 86.4959 35.4271 86.3667 35.15C86.2148 34.8383 86.1402 34.495 86.1492 34.1489C86.1412 33.7775 86.2226 33.4097 86.3865 33.0758C86.5309 32.7755 86.7598 32.5233 87.0457 32.3495C87.342 32.1931 87.6725 32.1113 88.0081 32.1113C88.3437 32.1113 88.6742 32.1931 88.9705 32.3495C89.2396 32.4975 89.4543 32.7267 89.5836 33.0038C89.7347 33.3064 89.8094 33.6411 89.8011 33.9787C89.8085 34.3577 89.7296 34.7335 89.5704 35.078C89.427 35.3806 89.198 35.6353 88.9112 35.8108C88.6104 35.9727 88.2707 36.0496 87.929 36.0333ZM87.9751 35.9548C88.1458 35.9608 88.3148 35.92 88.4637 35.8369C88.6125 35.7538 88.7354 35.6316 88.8189 35.4837C89.041 35.0585 89.1413 34.5809 89.1089 34.1031C89.1175 33.7538 89.0731 33.4054 88.9771 33.0693C88.9067 32.82 88.7701 32.594 88.5816 32.415C88.418 32.266 88.2037 32.1841 87.9817 32.1859C87.8111 32.1809 87.6423 32.2214 87.4927 32.3031C87.3432 32.3848 87.2184 32.5048 87.1313 32.6505C86.9097 33.0711 86.8093 33.5443 86.8413 34.018C86.8347 34.3697 86.8814 34.7204 86.9797 35.0584C87.0499 35.3078 87.1865 35.5339 87.3753 35.7127C87.4543 35.7902 87.5479 35.8516 87.6509 35.8931C87.7538 35.9347 87.864 35.9556 87.9751 35.9548Z" fill="white"/>
<path d="M91.0994 35.9155L91.6135 35.6734V32.2383H91.1192V32.1729H94.1976L94.2503 33.2656H94.1976L93.6307 32.2383H92.2595V34.0704H93.044L93.3802 33.488H93.4263V34.7966H93.3538V34.1423H92.2595V35.8894H93.044V35.9548H91.0664L91.0994 35.9155Z" fill="white"/>
<path d="M98.6367 35.9155L99.1773 35.6734V32.2383H98.439L97.8457 33.3441H97.793L97.8325 32.1729H101.175L101.214 33.3441H101.161L100.568 32.2383H99.8299V35.8959H100.377V35.9613H98.6433L98.6367 35.9155Z" fill="white"/>
<path d="M102.562 35.9155L103.077 35.6734V32.2383H102.582V32.1729H104.237V32.2383H103.729V35.8959H104.237V35.9613H102.562V35.9155ZM103.406 33.9526H105.885V34.0311H103.406V33.9526ZM105.054 35.9155H105.568V32.2579H105.054V32.1925H106.709V32.2318L106.221 32.4738V35.9155H106.729V35.9809H105.054V35.9155Z" fill="white"/>
<path d="M108.105 35.9155L108.62 35.6734V32.2383H108.132V32.1729H111.237L111.296 33.2263H111.243L110.676 32.2383H109.272V33.9526H110.063L110.399 33.3703H110.446V34.6135H110.373V34.0377H109.272V35.9024H110.755L111.461 34.8556H111.514L111.368 35.9744H108.105V35.9155Z" fill="white"/>
<path d="M76.7427 29.7382L72.9259 19.9236H70.7704V20.0414L71.2384 21.1406L67.9754 29.3587C67.8882 29.585 67.7336 29.7795 67.5322 29.9163C67.3308 30.0531 67.0922 30.1256 66.8482 30.1243H66.3867V30.314H69.6827V30.1832H69.3333C69.1817 30.1822 69.0325 30.1448 68.8985 30.0744C68.7645 30.0039 68.6496 29.9024 68.5635 29.7785C68.4775 29.6545 68.4228 29.5118 68.4042 29.3624C68.3856 29.213 68.4036 29.0614 68.4566 28.9204L69.452 26.3031H73.1962L74.2509 29.0578C74.2956 29.1754 74.3109 29.3021 74.2956 29.4269C74.2802 29.5517 74.2347 29.671 74.1628 29.7745C74.0909 29.8781 73.9948 29.9628 73.8827 30.0214C73.7706 30.08 73.6459 30.1108 73.5192 30.1112H72.9523V30.3009H78.1731V30.1112H77.3096C77.1881 30.1133 77.0689 30.0788 76.9677 30.0122C76.8665 29.9456 76.788 29.8501 76.7427 29.7382ZM69.5311 26.1134L71.3307 21.3892L73.1303 26.1134H69.5311Z" fill="white"/>
<path d="M83.9611 25.7142H84.4753C84.6501 25.7142 84.8178 25.7832 84.9414 25.9059C85.0651 26.0286 85.1345 26.195 85.1345 26.3686V29.7775C84.6107 30.0941 84.0074 30.2574 83.3942 30.2487C82.8735 30.2487 80.5465 29.6467 80.5465 25.1123C80.5465 20.7088 83.0053 20.1003 83.5458 20.1003C86.499 20.1003 86.7957 23.169 86.7957 23.169H86.9341L86.8682 20.7415C85.8947 20.1865 84.7869 19.9059 83.6645 19.9302C82.7066 19.9117 81.7622 20.1563 80.9355 20.6368C80.1488 21.1086 79.5097 21.7882 79.0897 22.5998C78.6352 23.5098 78.409 24.5155 78.4305 25.5311C78.4018 26.1834 78.5035 26.835 78.7298 27.4482C78.9561 28.0613 79.3025 28.624 79.7489 29.1036C80.1918 29.55 80.7254 29.8975 81.3141 30.1231C81.9029 30.3488 82.5334 30.4474 83.1635 30.4122C84.553 30.3806 85.9125 30.005 87.1187 29.3195V26.3424C87.1187 26.1689 87.1882 26.0024 87.3118 25.8797C87.4354 25.757 87.6031 25.6881 87.7779 25.6881H88.292V25.4852H83.9611V25.7142Z" fill="white"/>
<path d="M116.553 30.2623C112.835 30.2623 112.499 20.1859 116.612 20.1859C119.249 20.1859 119.777 23.2153 119.777 23.2153H119.922L119.862 20.5981C119.405 20.4111 118.93 20.2686 118.445 20.1728C117.883 20.0805 117.314 20.0345 116.744 20.0354C115.773 20.0084 114.812 20.234 113.956 20.6897C113.155 21.1497 112.506 21.832 112.09 22.6526C111.636 23.5487 111.41 24.5417 111.431 25.5447C111.41 26.4522 111.614 27.351 112.024 28.1619C112.408 28.8861 113 29.4806 113.725 29.8697C114.538 30.2886 115.446 30.4936 116.362 30.4651C117.669 30.4603 118.955 30.1367 120.106 29.5229L120.297 26.8533H120.139C120.139 26.8533 119.856 30.2623 116.553 30.2623Z" fill="white"/>
<path d="M128.107 20.0015V20.1978H128.806C128.943 20.2028 129.078 20.2432 129.195 20.315C129.312 20.3869 129.409 20.4877 129.475 20.6077C129.542 20.7277 129.576 20.8627 129.574 20.9995C129.572 21.1364 129.534 21.2704 129.465 21.3886L127.092 25.3668L124.626 21.297C124.561 21.1963 124.525 21.0799 124.522 20.9602C124.519 20.8406 124.549 20.7225 124.608 20.6186C124.668 20.5147 124.756 20.429 124.861 20.371C124.966 20.313 125.086 20.2847 125.206 20.2894H125.767V20.0015H121.152V20.2894H121.475C121.552 20.289 121.627 20.3081 121.694 20.3447C121.761 20.3814 121.817 20.4344 121.858 20.4987L125.154 25.7332L125.193 29.4694C125.193 29.6429 125.124 29.8093 125 29.932C124.876 30.0547 124.709 30.1237 124.534 30.1237H123.98V30.3919H128.595V30.2022H127.837C127.662 30.2022 127.494 30.1332 127.37 30.0105C127.247 29.8878 127.177 29.7214 127.177 29.5479V25.9164L130.473 20.4268C130.508 20.3692 130.558 20.3215 130.616 20.2883C130.675 20.2551 130.742 20.2374 130.81 20.237H131.231V20.0473L128.107 20.0015Z" fill="white"/>
<path d="M106.735 20.1463V20.2771H107.783C107.986 20.2788 108.18 20.3591 108.324 20.5009C108.468 20.6427 108.551 20.8348 108.554 21.0362V27.0951L102.727 20.022H99.49V20.1398C99.8413 20.1957 100.159 20.38 100.38 20.6567L100.947 21.311V29.3132C100.947 29.5162 100.866 29.7109 100.721 29.8545C100.576 29.9981 100.38 30.0787 100.176 30.0787H99.457V30.4255H103.109V30.0787H102.067C101.966 30.0796 101.866 30.0606 101.773 30.0228C101.679 29.9851 101.594 29.9293 101.522 29.8587C101.451 29.7882 101.394 29.7042 101.355 29.6117C101.316 29.5192 101.296 29.4199 101.296 29.3197V21.6905L108.547 30.4255H108.87V21.0427C108.87 20.8397 108.952 20.6449 109.096 20.5014C109.241 20.3578 109.437 20.2771 109.642 20.2771H110.373V19.9238H106.721L106.735 20.1463Z" fill="white"/>
<path d="M95.2919 30.0787H93.7164C93.506 30.0788 93.3041 29.9962 93.1547 29.8492C93.0053 29.7021 92.9205 29.5024 92.9187 29.2936V25.0798H95.015C95.3355 25.0815 95.6423 25.2091 95.8684 25.4347C96.0944 25.6603 96.2213 25.9655 96.2213 26.2837V26.6894H96.4323V23.2543H96.2411V23.6665C96.2411 23.984 96.114 24.2886 95.8878 24.5132C95.6615 24.7377 95.3547 24.8639 95.0348 24.8639H92.9385V20.2837H95.1139C95.7556 20.2871 96.3723 20.531 96.8404 20.9666C97.3086 21.4022 97.5937 21.9973 97.6386 22.6327V22.6916H97.7836L97.7507 19.9238H89.5437V20.2771H90.3545C90.4734 20.2771 90.5874 20.3241 90.6714 20.4075C90.7555 20.4909 90.8028 20.6041 90.8028 20.7221V29.4964C90.8028 29.6699 90.7333 29.8364 90.6097 29.9591C90.4861 30.0818 90.3184 30.1507 90.1436 30.1507H89.4844V30.4648H97.8693L98.2648 27.3633H98.1198C98.1198 27.3633 97.4013 30.0787 95.2919 30.0787Z" fill="white"/>
<path d="M108.003 47.7907L104.187 37.9761H102.031V38.0873L102.506 39.1931L99.2097 47.4112C99.1191 47.6364 98.9627 47.8296 98.7607 47.966C98.5587 48.1024 98.3203 48.1758 98.0759 48.1768H97.6211V48.3665H100.917V48.2357H100.574C100.422 48.2357 100.272 48.1991 100.137 48.1291C100.002 48.0591 99.8866 47.9577 99.7998 47.8336C99.713 47.7095 99.6577 47.5664 99.6388 47.4165C99.6198 47.2666 99.6378 47.1144 99.691 46.9728L100.686 44.3556H104.431L105.485 47.1102C105.53 47.2279 105.545 47.3546 105.53 47.4794C105.515 47.6042 105.469 47.7235 105.397 47.827C105.325 47.9305 105.229 48.0153 105.117 48.0739C105.005 48.1325 104.88 48.1633 104.754 48.1637H104.187V48.3534H109.407V48.1637H108.531C108.416 48.1573 108.306 48.1189 108.213 48.0529C108.119 47.9869 108.047 47.896 108.003 47.7907ZM100.792 44.1658L102.591 39.4417L104.391 44.1658H100.792Z" fill="white"/>
<path d="M84.2526 38.1723H84.9513C85.0891 38.1773 85.2233 38.2178 85.3407 38.2896C85.458 38.3614 85.5547 38.4622 85.6211 38.5822C85.6875 38.7022 85.7214 38.8372 85.7196 38.9741C85.7177 39.1109 85.6801 39.245 85.6105 39.3632L83.2374 43.3413L80.7721 39.2715C80.7069 39.1709 80.6707 39.0544 80.6676 38.9348C80.6644 38.8152 80.6944 38.697 80.7542 38.5931C80.814 38.4892 80.9014 38.4036 81.0068 38.3456C81.1122 38.2875 81.2317 38.2593 81.3521 38.2639H81.919V37.976H77.3047V38.2443H77.6277C77.7041 38.2439 77.7794 38.263 77.8463 38.2996C77.9132 38.3363 77.9696 38.3893 78.01 38.4537L81.306 43.6881L81.3456 47.4243C81.3456 47.5978 81.2761 47.7642 81.1525 47.8869C81.0288 48.0096 80.8612 48.0786 80.6864 48.0786H80.1392V48.2879H84.7536V48.0982H84.0021C83.8273 48.0982 83.6596 48.0293 83.536 47.9065C83.4123 47.7838 83.3429 47.6174 83.3429 47.4439V43.8059L86.6389 38.3162C86.6738 38.2587 86.7231 38.211 86.782 38.1778C86.8409 38.1446 86.9073 38.1269 86.9751 38.1265H87.3969V37.9368H84.2262L84.2526 38.1723Z" fill="white"/>
<path d="M94.1642 48.0595H92.5887C92.3783 48.0595 92.1764 47.977 92.027 47.8299C91.8776 47.6829 91.7928 47.4832 91.7911 47.2743V43.0606H93.8939C94.215 43.0623 94.5226 43.1897 94.7497 43.4151C94.9768 43.6405 95.1051 43.9457 95.1068 44.2645V44.6702H95.298V41.235H95.1068V41.6473C95.1068 41.9666 94.979 42.2728 94.7516 42.4986C94.5241 42.7244 94.2156 42.8512 93.8939 42.8512H91.8109V38.271H94.0257C94.6674 38.2744 95.2842 38.5183 95.7523 38.9539C96.2205 39.3895 96.5056 39.9846 96.5505 40.62V40.6789H96.6889L96.6494 37.9111H88.4226V38.2448H89.2334C89.3518 38.2465 89.4648 38.2939 89.5485 38.377C89.6322 38.4601 89.68 38.5723 89.6817 38.6898V47.4706C89.6817 47.6441 89.6122 47.8106 89.4886 47.9333C89.365 48.056 89.1973 48.1249 89.0225 48.1249H88.3633V48.439H96.7416L97.1437 45.3441H96.9921C96.9921 45.3441 96.2802 48.0595 94.1642 48.0595Z" fill="white"/>
<path d="M118.527 46.8158C118.132 46.2727 116.55 43.891 116.148 43.2367C117.842 42.7591 118.554 41.7122 118.527 40.7045C118.488 39.3109 117.024 37.9761 114.783 37.9761H109.978V38.2443H110.558C110.72 38.2443 110.876 38.3084 110.991 38.4226C111.106 38.5367 111.171 38.6914 111.171 38.8528V47.5093C111.171 47.6707 111.106 47.8255 110.991 47.9397C110.876 48.0538 110.72 48.1179 110.558 48.1179H109.898V48.3142H114.473V48.059H113.9C113.737 48.059 113.581 47.9949 113.466 47.8808C113.351 47.7666 113.287 47.6119 113.287 47.4505V43.4788H113.946C114.928 45.1698 116.03 46.7899 117.242 48.3272H120.333V48.0982C119.582 48.1244 118.982 47.457 118.527 46.8158ZM113.794 43.276H113.306V38.2967H114.506C115.647 38.2967 116.424 39.4221 116.451 40.6522C116.478 41.0047 116.427 41.3588 116.303 41.6901C116.179 42.0214 115.984 42.3221 115.731 42.5715C115.479 42.8208 115.175 43.0129 114.841 43.1345C114.506 43.2561 114.149 43.3044 113.794 43.276Z" fill="white"/>
<path d="M97.211 16.0953H95.5168V15.9905C95.5168 15.8924 95.5168 15.8793 95.7212 15.8466C95.8301 15.8325 95.9333 15.7899 96.0201 15.7233C96.107 15.6566 96.1745 15.5682 96.2156 15.4671C96.2749 15.3166 96.2749 15.1399 96.2749 12.3002C96.2749 9.46051 96.2749 9.29697 96.209 9.18573C96.1581 9.11842 96.0938 9.0622 96.0201 9.02056C95.9464 8.97892 95.8648 8.9527 95.7805 8.9436C95.7587 8.94669 95.7365 8.94483 95.7156 8.93813C95.6946 8.93143 95.6754 8.92008 95.6596 8.90494C95.6437 8.88981 95.6315 8.8713 95.6239 8.85079C95.6163 8.83028 95.6135 8.80831 95.6157 8.78657C95.6157 8.69497 95.6882 8.65572 96.0376 8.59029L97.1055 8.36784L98.0547 8.17807H98.1602V8.55758C98.1468 8.68285 98.158 8.8095 98.1932 8.93054C98.2914 8.86417 98.3801 8.78495 98.4569 8.695C98.6698 8.44505 98.9624 8.27495 99.2862 8.21305C99.6101 8.15115 99.9455 8.20116 100.237 8.35475C100.591 8.57289 100.891 8.86825 101.113 9.21844C101.471 9.86739 101.644 10.601 101.612 11.3401C101.581 12.0792 101.347 12.7958 100.935 13.4126C100.761 13.667 100.526 13.8745 100.251 14.0161C99.976 14.1578 99.6698 14.2292 99.36 14.2239C99.1829 14.2259 99.0075 14.1908 98.845 14.1209C98.6826 14.051 98.5369 13.9478 98.4173 13.8182C98.3385 13.737 98.2549 13.6605 98.1668 13.5892C98.1668 13.5892 98.1668 14.0014 98.1668 14.5052C98.1668 15.3886 98.1668 15.4344 98.2591 15.5718C98.3162 15.6603 98.3939 15.7339 98.4857 15.7863C98.5775 15.8387 98.6807 15.8683 98.7865 15.8728C98.8513 15.8751 98.9137 15.898 98.9644 15.9382C99.0106 15.9905 98.9644 16.1083 98.9644 16.1214L97.211 16.0953ZM99.3006 13.478C99.6104 13.2555 99.7093 12.7452 99.7159 11.345C99.7897 10.6614 99.697 9.97025 99.4457 9.32966C99.4011 9.24657 99.333 9.17818 99.2499 9.13286C99.1668 9.08754 99.0722 9.06724 98.9776 9.07447C98.6546 9.07447 98.4371 9.2446 98.2723 9.65682C98.1932 9.84003 98.1932 9.87929 98.18 11.3384C98.18 13.02 98.18 12.9284 98.4371 13.2424C98.6942 13.5565 99.0567 13.6481 99.3006 13.478ZM112.135 16.0953C111.601 16.0632 111.077 15.9392 110.586 15.7288C110.395 15.6308 110.23 15.4895 110.105 15.3166C110.037 15.2095 110.009 15.0822 110.026 14.9567C110.026 14.5838 110.144 14.4333 110.586 14.2108C110.85 14.08 110.896 14.0276 110.81 13.9753C110.55 13.8239 110.361 13.5771 110.283 13.2882C110.244 13.1207 110.25 12.946 110.301 12.7816C110.352 12.6173 110.446 12.4693 110.573 12.3526C110.728 12.2316 110.908 12.1467 111.1 12.1039C111.12 12.11 111.142 12.1079 111.161 12.0981C111.179 12.0883 111.193 12.0715 111.199 12.0516C111.205 12.0316 111.203 12.0101 111.193 11.9917C111.183 11.9733 111.166 11.9595 111.146 11.9535L110.876 11.7572C110.507 11.5144 110.241 11.1458 110.128 10.7212C110.015 10.2967 110.063 9.84579 110.263 9.45398C110.428 9.15359 110.653 8.89034 110.926 8.68086C111.198 8.47139 111.511 8.32025 111.845 8.23697C112.406 8.10212 112.992 8.11565 113.546 8.27623C113.816 8.36783 113.836 8.36782 114.864 8.38745H115.919V8.93054H115.332H114.746L114.937 9.2315C115.174 9.52614 115.318 9.88336 115.352 10.2588C115.376 10.5144 115.339 10.7719 115.244 11.0106C115.149 11.2493 114.998 11.4625 114.805 11.6329C114.634 11.813 114.431 11.9595 114.205 12.0647C113.585 12.3657 113.269 12.3984 111.838 12.3395C111.179 12.3068 111.107 12.3395 111.107 12.4834C111.107 12.6274 111.107 12.6732 112.906 12.6928C114.548 12.6928 114.6 12.6928 114.831 12.791C115.122 12.8645 115.388 13.0135 115.602 13.2228C115.695 13.3063 115.77 13.407 115.823 13.5193C115.876 13.6316 115.907 13.7532 115.912 13.8771C116.051 14.9437 115.253 15.7288 113.849 15.9709C113.273 16.0329 112.694 16.0526 112.115 16.0298L112.135 16.0953ZM113.961 15.5653C114.206 15.5152 114.433 15.4024 114.62 15.2381C114.678 15.1884 114.724 15.127 114.755 15.0582C114.787 14.9893 114.803 14.9146 114.803 14.839C114.803 14.7633 114.787 14.6886 114.755 14.6198C114.724 14.5509 114.678 14.4896 114.62 14.4398C114.35 14.237 113.908 14.1847 112.643 14.1977H111.654L111.476 14.2894C110.916 14.5838 110.968 15.14 111.588 15.4344C112.035 15.6305 112.526 15.7072 113.012 15.6568C113.319 15.6731 113.626 15.6377 113.922 15.5522L113.961 15.5653ZM113.098 11.9404C113.46 11.7637 113.612 11.2861 113.612 10.2457C113.612 9.20536 113.447 8.83895 113.051 8.65574C112.656 8.47254 112.214 8.7408 112.03 9.38857C111.948 9.90576 111.93 10.4309 111.977 10.9523C112.056 11.502 112.221 11.8095 112.504 11.9535C112.595 12.0033 112.697 12.0294 112.801 12.0294C112.905 12.0294 113.007 12.0033 113.098 11.9535V11.9404ZM77.6593 14.2239C77.0467 14.1741 76.472 13.9097 76.0377 13.478C75.5689 13.017 75.2914 12.3983 75.2598 11.7441C75.2036 11.3033 75.2407 10.8558 75.3687 10.4301C75.4967 10.0043 75.7128 9.60985 76.0032 9.27176C76.2935 8.93366 76.6517 8.65944 77.055 8.46661C77.4582 8.27378 77.8975 8.1666 78.3449 8.15191C78.6786 8.1457 79.0102 8.20557 79.3203 8.32803C79.6304 8.45048 79.9128 8.63305 80.151 8.86509C80.3199 9.01537 80.4468 9.20633 80.5195 9.41952C80.5923 9.63271 80.6084 9.86095 80.5663 10.0821C80.5478 10.1998 80.4993 10.3108 80.4255 10.4047C80.3517 10.4986 80.2549 10.5722 80.1444 10.6187C80.023 10.6875 79.8855 10.7237 79.7456 10.7237C79.6058 10.7237 79.4683 10.6875 79.3468 10.6187C78.9908 10.442 78.859 10.1803 78.7799 9.49979C78.7008 8.81931 78.6085 8.6819 78.1867 8.6819C78.0528 8.67311 77.9194 8.70507 77.8043 8.77351C77.4531 9.03319 77.2169 9.41774 77.1451 9.84655C77.0828 10.1101 77.065 10.3821 77.0924 10.6514C77.082 11.082 77.1628 11.51 77.3297 11.9076C77.4434 12.2212 77.6306 12.5034 77.8759 12.731C78.1212 12.9585 78.4175 13.1249 78.7404 13.2163C78.889 13.2583 79.0465 13.2583 79.1952 13.2163C79.5152 13.1346 79.8126 12.9826 80.0653 12.7713C80.132 12.7072 80.2103 12.6562 80.296 12.6209C80.3488 12.6209 80.4477 12.7713 80.4477 12.8564C80.2308 13.2246 79.9334 13.5399 79.5775 13.779C79.0226 14.1572 78.347 14.3202 77.6791 14.237L77.6593 14.2239ZM84.7852 14.2239C84.587 14.1935 84.3998 14.114 84.2408 13.9927C84.0818 13.8715 83.9562 13.7125 83.8755 13.5303C83.7832 13.2686 83.7766 13.2686 83.5789 13.4322C83.2845 13.6638 82.9689 13.8676 82.6362 14.0407C82.3914 14.1717 82.1151 14.2336 81.8374 14.2197C81.5597 14.2059 81.2911 14.1168 81.0607 13.9622C80.7954 13.7311 80.6223 13.4133 80.5727 13.0664C80.5231 12.7195 80.6003 12.3665 80.7904 12.0712C81.0237 11.7247 81.3185 11.4231 81.6606 11.1814C82.2777 10.775 82.9416 10.4433 83.6382 10.1934C83.8821 10.1214 83.8821 10.1083 83.8623 9.53905C83.8425 8.9698 83.77 8.88473 83.5129 8.71461C83.2558 8.54449 83.3283 8.60994 82.9856 8.60994C82.6428 8.60994 82.6164 8.60991 82.4516 8.70806C82.2868 8.80621 82.1088 9.02869 82.1484 9.17263C82.1998 9.28421 82.264 9.38958 82.3396 9.48669C82.4213 9.59155 82.4858 9.70861 82.5307 9.83349C82.623 10.3242 82.1286 10.7495 81.509 10.7102C80.8893 10.671 80.6718 10.3046 80.7443 9.67647C80.8168 9.04833 81.4035 8.49214 82.445 8.21733C82.7723 8.13601 83.1109 8.10948 83.447 8.13881C83.7765 8.11247 84.1082 8.13897 84.4292 8.21733C84.7002 8.25835 84.9556 8.36943 85.1696 8.53941C85.3837 8.70939 85.5489 8.93231 85.6487 9.18573C85.6487 9.24462 85.6883 10.0101 85.7014 11.1944C85.7014 13.0134 85.7015 13.1051 85.7937 13.2359C85.886 13.3668 85.8728 13.3668 85.9981 13.3798C86.1233 13.3929 86.1497 13.3798 86.2222 13.2882C86.2947 13.1966 86.387 13.1574 86.4661 13.249C86.5452 13.3406 86.5057 13.4191 86.3013 13.6481C86.1139 13.8565 85.8772 14.0153 85.6125 14.1101C85.3478 14.2049 85.0634 14.2328 84.7852 14.1912V14.2239ZM83.3613 13.1312C83.4699 13.0769 83.5735 13.0134 83.6711 12.9415L83.7964 12.8368V11.6787C83.7964 11.0243 83.7964 10.514 83.7964 10.514C83.4878 10.6353 83.2074 10.8179 82.9724 11.0505C82.7399 11.263 82.5654 11.5304 82.4651 11.8279C82.3648 12.1253 82.342 12.4431 82.3989 12.7517C82.5175 13.1901 82.8867 13.3341 83.3613 13.0985V13.1312ZM105.827 14.2304C105.579 14.2008 105.348 14.093 105.167 13.9229C105.009 13.7756 104.895 13.5876 104.838 13.3798C104.838 13.2752 104.752 13.3079 104.436 13.55C104.101 13.7986 103.733 13.9991 103.341 14.1454C103.184 14.195 103.019 14.2172 102.854 14.2108C102.671 14.2287 102.488 14.1922 102.326 14.1061C102.063 13.9976 101.846 13.8009 101.713 13.55C101.617 13.3926 101.571 13.2102 101.581 13.0265C101.555 12.7612 101.594 12.4935 101.697 12.247C101.799 12.0005 101.961 11.7828 102.168 11.6132C102.342 11.4416 102.529 11.2841 102.728 11.1421C103.241 10.821 103.782 10.5452 104.343 10.3177L104.838 10.1148C104.884 10.1148 104.891 10.0036 104.891 9.66337C104.891 9.15955 104.831 9.00907 104.634 8.81932C104.535 8.73981 104.42 8.68229 104.298 8.65067C104.175 8.61906 104.047 8.61407 103.922 8.63609C103.796 8.63172 103.672 8.65601 103.557 8.70706C103.443 8.75812 103.342 8.83458 103.262 8.93054C103.144 9.10721 103.164 9.23152 103.361 9.49324C103.559 9.75496 103.592 9.8335 103.592 10.0036C103.558 10.2251 103.44 10.4253 103.262 10.5638C103.085 10.7023 102.861 10.7687 102.636 10.7495C102.455 10.7577 102.276 10.7072 102.126 10.6057C101.976 10.5043 101.864 10.3572 101.806 10.1868C101.548 9.31657 102.359 8.47906 103.704 8.22388C104.223 8.15552 104.748 8.15552 105.266 8.22388C105.568 8.24334 105.858 8.34373 106.107 8.51429C106.355 8.68485 106.552 8.91915 106.677 9.19224C106.768 9.88189 106.795 10.5785 106.756 11.273C106.756 13.02 106.756 13.1901 106.835 13.2882C106.914 13.3864 107.04 13.4845 107.105 13.4453C107.167 13.4029 107.227 13.357 107.283 13.3079L107.428 13.1966L107.501 13.2817C107.6 13.3798 107.593 13.393 107.389 13.6416C107.207 13.8682 106.968 14.0432 106.696 14.1489C106.424 14.2546 106.129 14.2872 105.84 14.2435L105.827 14.2304ZM104.403 13.1181C104.512 13.0632 104.616 12.9974 104.713 12.9218L104.805 12.8302V10.514H104.726C104.375 10.6657 104.061 10.8886 103.803 11.1683C103.619 11.3791 103.486 11.6293 103.415 11.8994C103.344 12.1695 103.337 12.4523 103.394 12.7255C103.533 13.2032 103.915 13.334 104.403 13.0854V13.1181ZM87.5538 14.1585H86.1563V14.0342C86.1563 13.9491 86.1563 13.9229 86.209 13.9229C86.3865 13.8754 86.5395 13.7632 86.6375 13.6088C86.6765 13.514 86.7052 13.4153 86.7232 13.3144C86.7759 13.0658 86.7693 9.22498 86.7232 9.04831C86.6939 8.96047 86.6439 8.88082 86.5775 8.81597C86.511 8.75111 86.4299 8.70289 86.3409 8.67535C86.2024 8.67535 86.1299 8.56411 86.1629 8.45942C86.1958 8.35473 86.2222 8.38745 87.4285 8.38745H88.6678V9.2446C88.6678 9.29694 88.7403 9.2446 88.9315 9.04176C89.1877 8.7598 89.5026 8.53653 89.8544 8.38745C90.0438 8.30882 90.2498 8.27736 90.4542 8.29584C90.6419 8.28031 90.8307 8.30488 91.0079 8.36784C91.2133 8.45217 91.3969 8.58118 91.5452 8.7454C91.6935 8.90962 91.8028 9.10481 91.8649 9.31656C91.8851 9.39163 91.9186 9.46254 91.9638 9.52595C92.0453 9.45129 92.1183 9.3679 92.1813 9.27731C92.3546 8.9967 92.5939 8.76203 92.8786 8.59336C93.1634 8.4247 93.485 8.32709 93.8161 8.30894C94.1141 8.29965 94.4084 8.3763 94.6635 8.52959C94.9185 8.68287 95.1233 8.90622 95.2532 9.17263C95.4641 9.57831 95.5037 9.94472 95.5037 11.7899C95.5037 12.6209 95.5037 13.321 95.5037 13.4257C95.5498 13.6612 95.6223 13.7593 95.8135 13.8248C95.8797 13.8445 95.9437 13.8708 96.0046 13.9033C96.064 13.936 96.064 14.1258 96.0046 14.1323H93.124C93.124 14.1323 93.091 14.1323 93.0778 14.0669C93.0709 14.0454 93.0687 14.0226 93.0715 14.0002C93.0742 13.9778 93.0817 13.9562 93.0936 13.937C93.1055 13.9177 93.1215 13.9012 93.1403 13.8886C93.1592 13.876 93.1806 13.8677 93.2031 13.864C93.2765 13.86 93.3476 13.8367 93.4089 13.7964C93.4703 13.7562 93.5199 13.7005 93.5525 13.635C93.6903 12.7697 93.7279 11.8916 93.6645 11.0178C93.6787 10.509 93.661 9.99985 93.6118 9.49324C93.5867 9.40842 93.5421 9.33054 93.4814 9.26581C93.4208 9.20107 93.3458 9.15125 93.2624 9.12028C92.9328 9.02213 92.5175 9.31003 92.2143 9.8531L92.0561 10.1214V11.43C91.9978 12.16 92.0332 12.8943 92.1615 13.6154C92.1909 13.6762 92.2332 13.7299 92.2856 13.7729C92.3379 13.8158 92.3991 13.8469 92.4648 13.864C92.5232 13.8788 92.5745 13.9136 92.6098 13.9622C92.6098 14.0276 92.6098 14.1323 92.5637 14.1388H89.6962V14.0211C89.6962 13.9098 89.6962 13.8968 89.8478 13.8248C89.9044 13.8024 89.9558 13.7688 89.9988 13.7261C90.0419 13.6833 90.0757 13.6323 90.0983 13.5761L90.184 13.406V11.4431C90.184 9.5194 90.184 9.48017 90.1114 9.34276C89.9005 8.89783 89.3863 8.98288 88.9315 9.5325C88.6085 9.93163 88.6283 9.78768 88.6415 11.7375C88.6415 13.3733 88.6415 13.4584 88.7206 13.5827C88.7718 13.6863 88.8616 13.7661 88.9711 13.8052C89.1688 13.9033 89.2347 14.0211 89.1293 14.0996C89.0905 14.1105 89.0494 14.1105 89.0106 14.0996H87.567L87.5538 14.1585ZM107.211 14.0931C107.171 13.9753 107.211 13.9426 107.396 13.8379C107.508 13.7856 107.601 13.6983 107.659 13.5892L107.745 13.4322V11.3908C107.745 10.2719 107.745 9.28386 107.745 9.20534C107.745 8.9567 107.501 8.78658 107.145 8.71461C107.131 8.71378 107.118 8.71023 107.105 8.70419C107.093 8.69814 107.081 8.68972 107.072 8.67938C107.063 8.66905 107.056 8.657 107.052 8.64396C107.047 8.63092 107.045 8.61714 107.046 8.60339C107.046 8.37438 106.921 8.38745 108.365 8.38745H109.604V10.7626C109.604 12.4049 109.604 13.2294 109.643 13.3798C109.664 13.4913 109.717 13.5943 109.795 13.6767C109.874 13.7591 109.974 13.8174 110.085 13.8444C110.25 13.9033 110.27 13.9164 110.283 14.0145C110.296 14.1127 110.283 14.1257 110.237 14.1388C110.191 14.1519 109.518 14.1388 108.701 14.1388H107.218L107.211 14.0931ZM116.156 14.1454C116.071 14.0538 116.156 13.8902 116.321 13.8444C116.486 13.7986 116.532 13.6219 116.571 13.3275C116.571 13.1639 116.571 12.333 116.571 11.1094C116.571 9.19882 116.571 9.14647 116.486 9.01561C116.426 8.9079 116.334 8.82112 116.222 8.76696C116.044 8.66227 116.031 8.64919 116.031 8.52487V8.38745H118.463V8.77351C118.463 9.01561 118.463 9.15955 118.503 9.17263C118.542 9.18572 118.615 9.09413 118.714 8.9829C118.972 8.70853 119.281 8.48634 119.624 8.32859C119.788 8.27618 119.959 8.24538 120.131 8.23697C120.49 8.19136 120.853 8.27623 121.154 8.47591C121.454 8.67559 121.672 8.97654 121.766 9.32311C121.918 9.73533 121.924 9.84004 121.944 11.6721C121.964 13.5042 121.944 13.4453 122.043 13.5827C122.142 13.7201 122.267 13.864 122.346 13.864C122.425 13.864 122.392 13.9098 122.392 14.0145V14.165H121.074H119.67C119.604 14.165 119.591 14.165 119.584 14.0276C119.577 13.8902 119.584 13.8837 119.716 13.8052C119.801 13.7556 119.876 13.6887 119.933 13.6088C119.999 13.4911 119.999 13.4453 119.999 11.4823C119.999 9.5194 119.999 9.46708 119.933 9.34276C119.893 9.26855 119.839 9.20209 119.775 9.14648C119.694 9.10763 119.605 9.08745 119.515 9.08745C119.425 9.08745 119.336 9.10763 119.254 9.14648C119.017 9.29556 118.813 9.49151 118.655 9.72223L118.49 9.95782V11.6329C118.458 12.2482 118.473 12.865 118.536 13.478C118.561 13.5643 118.604 13.6441 118.663 13.712C118.723 13.7798 118.796 13.8339 118.879 13.8706C118.912 13.8807 118.941 13.9016 118.962 13.93C118.982 13.9585 118.992 13.9928 118.991 14.0276C118.991 14.093 118.991 14.1388 118.951 14.1519C118.912 14.165 116.176 14.1519 116.136 14.1519L116.156 14.1454ZM108.417 8.14536C108.303 8.11002 108.197 8.05249 108.105 7.97611C108.014 7.89973 107.938 7.80602 107.883 7.70043C107.804 7.5759 107.769 7.42832 107.784 7.28167C107.778 7.10967 107.82 6.93925 107.905 6.78917C107.989 6.6391 108.114 6.5152 108.266 6.43107C108.396 6.35143 108.549 6.31904 108.701 6.33946C108.826 6.33191 108.952 6.35478 109.067 6.40607C109.182 6.45736 109.282 6.53553 109.36 6.6339C109.531 6.80954 109.626 7.04412 109.626 7.28822C109.626 7.53231 109.531 7.76689 109.36 7.94253C109.238 8.05914 109.087 8.14081 108.922 8.17883C108.757 8.21685 108.585 8.20981 108.424 8.15846L108.417 8.14536Z" fill="white"/>
</svg>
