<svg width="131" height="79" viewBox="0 0 131 79" fill="none" xmlns="http://www.w3.org/2000/svg">
<path d="M11.3814 68.2612L31.9707 24.8236L52.5601 68.2612H63.917L31.9707 0.865723L0.03125 68.2612H11.3814Z" fill="white"/>
<path d="M88.7303 36.7324C88.4081 36.7406 88.0894 36.6644 87.8063 36.5115C87.5439 36.3705 87.3337 36.15 87.2062 35.8823C87.0584 35.5803 86.9866 35.2472 86.9971 34.9116C86.9884 34.5504 87.067 34.1923 87.2264 33.8674C87.3755 33.5698 87.6102 33.3229 87.9008 33.1578C88.1916 32.991 88.5225 32.9054 88.8584 32.9101C89.1796 32.9032 89.4974 32.9769 89.7823 33.1243C90.0379 33.2689 90.2445 33.4855 90.3758 33.7469C90.5219 34.0446 90.5936 34.373 90.5849 34.7041C90.5924 35.071 90.5163 35.4349 90.3623 35.7685C90.2248 36.0628 90.0047 36.3115 89.7284 36.4847C89.4266 36.6608 89.08 36.7468 88.7303 36.7324ZM88.7775 36.6588C88.9441 36.6639 89.1089 36.6236 89.254 36.5421C89.3991 36.4607 89.5189 36.3413 89.6003 36.1969C89.8148 35.7842 89.9126 35.3216 89.8835 34.8581C89.8892 34.5164 89.8437 34.1758 89.7486 33.8473C89.6875 33.5923 89.5541 33.36 89.3642 33.1779C89.2049 33.0315 88.9945 32.9522 88.7775 32.957C88.6122 32.9505 88.4483 32.9888 88.3034 33.0679C88.1584 33.1469 88.0379 33.2636 87.9547 33.4055C87.7363 33.8169 87.6359 34.2801 87.6647 34.7443C87.6583 35.0887 87.706 35.432 87.8063 35.7618C87.8688 36.0162 88.002 36.2482 88.1907 36.4312C88.3493 36.5795 88.5596 36.661 88.7775 36.6588Z" fill="white"/>
<path d="M91.7969 36.5989L92.296 36.3647V33.0176H91.8171V32.9507H94.8182L94.8654 34.0218H94.8182L94.2584 33.0176H92.9096V34.8049H93.7122L94.0359 34.2359H94.0831V35.4944H94.0157V34.8853H92.9501V36.5989H93.7122V36.6659H91.8239L91.7969 36.5989Z" fill="white"/>
<path d="M99.1548 36.5989L99.6808 36.3647V33.0176H98.9592L98.386 34.0954H98.332L98.3725 32.9507H101.623L101.67 34.0954H101.616L101.036 33.0176H100.315V36.5989H100.841V36.6659H99.1548V36.5989Z" fill="white"/>
<path d="M102.977 36.5989L103.476 36.3647V33.0176H102.997V32.9507H104.609V33.0176H104.11V36.5989H104.609V36.6659H102.977V36.5989ZM103.793 34.6912H106.207V34.7648H103.793V34.6912ZM105.404 36.5788H105.903V33.0176H105.404V32.9507H107.016V32.9975L106.531 33.2519V36.5989H107.03V36.6659H105.398L105.404 36.5788Z" fill="white"/>
<path d="M108.385 36.5989L108.884 36.3647V33.0176H108.405V32.9507H111.44L111.487 33.9816H111.446L110.887 33.0243H109.538V34.6978H110.313L110.637 34.1288H110.684V35.3405H110.59V34.7782H109.511V36.5989H110.961L111.635 35.5814H111.689L111.547 36.6659H108.371L108.385 36.5989Z" fill="white"/>
<path d="M77.8244 30.7942L74.1085 21.2017H72.0111V21.3087L72.4697 22.3865L69.2933 30.4193C69.2058 30.638 69.0543 30.8256 68.8584 30.958C68.6625 31.0904 68.4311 31.1616 68.1941 31.1624H67.7422V31.3431H70.9523V31.2427H70.6219C70.4737 31.2424 70.3277 31.2065 70.1966 31.138C70.0654 31.0695 69.9529 30.9705 69.8687 30.8495C69.7845 30.7284 69.7311 30.5889 69.7131 30.4428C69.6952 30.2968 69.7131 30.1486 69.7654 30.011L70.7298 27.4807H74.3783L75.4034 30.1583C75.4469 30.2724 75.462 30.3953 75.4473 30.5165C75.4326 30.6376 75.3885 30.7534 75.319 30.8541C75.2494 30.9547 75.1564 31.0371 75.0477 31.0943C74.9391 31.1515 74.8182 31.1817 74.6952 31.1824H74.1625V31.3632H79.2474V31.1824H78.391C78.2674 31.1852 78.146 31.1492 78.0443 31.0795C77.9426 31.0098 77.8656 30.9099 77.8244 30.7942ZM70.7905 27.2664L72.5506 22.6677L74.3041 27.2664H70.7905Z" fill="white"/>
<path d="M84.8688 26.8575H85.3678C85.5467 26.8575 85.7182 26.9281 85.8447 27.0536C85.9712 27.1791 86.0422 27.3494 86.0422 27.5269V30.8739C85.5336 31.1844 84.9465 31.3446 84.3495 31.3358C83.8437 31.3358 81.5777 30.7534 81.5777 26.3287C81.5777 22.0378 83.9718 21.4487 84.4911 21.4487C87.3708 21.4487 87.6608 24.441 87.6608 24.441H87.7957L87.7282 22.0847C86.7824 21.5424 85.7044 21.2692 84.6125 21.2948C83.6815 21.2698 82.7617 21.5015 81.9554 21.9642C81.1854 22.4271 80.5616 23.095 80.1547 23.8921C79.7027 24.7751 79.4713 25.7532 79.4803 26.7437C79.455 27.3805 79.557 28.0159 79.7804 28.6134C80.0038 29.2108 80.3442 29.7584 80.7819 30.2246C81.2127 30.6627 81.7327 31.0046 82.3072 31.2274C82.8817 31.4502 83.4975 31.5488 84.1135 31.5165C85.4757 31.4914 86.8095 31.1254 87.9912 30.4522V27.5537C87.9912 27.3762 88.0623 27.2059 88.1888 27.0804C88.3153 26.9548 88.4868 26.8843 88.6656 26.8843H89.1647V26.6902H84.8755L84.8688 26.8575Z" fill="white"/>
<path d="M116.607 31.2899C112.985 31.2899 112.655 21.4697 116.661 21.4697C119.244 21.4697 119.743 24.4218 119.743 24.4218H119.884L119.83 21.8713C119.385 21.6867 118.922 21.5477 118.448 21.4563C117.899 21.3677 117.344 21.323 116.789 21.3224C115.846 21.3078 114.916 21.5386 114.091 21.9918C113.311 22.4309 112.678 23.0872 112.27 23.8796C111.818 24.7505 111.586 25.7179 111.596 26.6978C111.571 27.5841 111.768 28.4628 112.169 29.2549C112.542 29.9608 113.12 30.5392 113.828 30.915C114.612 31.3217 115.487 31.5244 116.371 31.5041C117.646 31.4976 118.899 31.1779 120.019 30.5736L120.208 27.9763H120.053C120.053 27.9763 119.824 31.2899 116.607 31.2899Z" fill="white"/>
<path d="M127.855 21.296V21.4834H128.53C128.667 21.4826 128.801 21.5177 128.92 21.5852C129.039 21.6528 129.138 21.7503 129.206 21.8679C129.275 21.9856 129.31 22.1191 129.31 22.2549C129.31 22.3908 129.273 22.5242 129.204 22.6415L126.898 26.5575L124.497 22.5411C124.445 22.4414 124.419 22.3303 124.421 22.218C124.424 22.1058 124.454 21.9959 124.511 21.8985C124.567 21.8012 124.647 21.7195 124.744 21.661C124.841 21.6025 124.95 21.569 125.063 21.5637H125.61V21.2826H121.125V21.5637H121.442C121.515 21.5627 121.587 21.5807 121.651 21.6159C121.715 21.6512 121.768 21.7024 121.806 21.7646L125.016 26.8855L125.05 30.527C125.05 30.7046 124.979 30.8748 124.852 31.0004C124.726 31.1259 124.554 31.1964 124.376 31.1964H123.836V31.3972H128.361V31.2098H127.626C127.447 31.2098 127.276 31.1393 127.149 31.0138C127.023 30.8882 126.952 30.718 126.952 30.5404V26.9993L130.142 21.644C130.175 21.5875 130.222 21.5405 130.278 21.5077C130.335 21.4748 130.4 21.4572 130.465 21.4566H130.877V21.2759L127.855 21.296Z" fill="white"/>
<path d="M107.031 21.4359V21.5631H108.05C108.248 21.5631 108.439 21.6414 108.579 21.7808C108.719 21.9201 108.798 22.1091 108.798 22.3062V28.2036L103.154 21.3154H100.004V21.4293C100.345 21.4844 100.653 21.6634 100.867 21.9313L101.42 22.6007V30.3925C101.42 30.5896 101.342 30.7786 101.201 30.918C101.061 31.0573 100.87 31.1356 100.672 31.1356H99.957V31.477H103.511V31.1356H102.479C102.28 31.1356 102.089 31.0575 101.948 30.9184C101.806 30.7792 101.726 30.5902 101.724 30.3925V22.9689L108.819 31.477H109.136V22.3062C109.136 22.1091 109.214 21.9201 109.355 21.7808C109.495 21.6414 109.686 21.5631 109.884 21.5631H110.572V21.2017H107.011L107.031 21.4359Z" fill="white"/>
<path d="M95.8834 31.1092H94.3525C94.2504 31.1101 94.1491 31.0908 94.0546 31.0524C93.9601 31.0141 93.8743 30.9574 93.8021 30.8857C93.7299 30.8141 93.6728 30.7289 93.6341 30.6351C93.5955 30.5413 93.576 30.4408 93.5769 30.3394V26.2427H95.6001C95.9119 26.2445 96.2104 26.3686 96.4303 26.5881C96.6502 26.8076 96.7736 27.1046 96.7736 27.4141V27.8091H96.9624V24.4621H96.7736V24.8637C96.7736 25.1744 96.6492 25.4724 96.4279 25.6921C96.2066 25.9117 95.9064 26.0351 95.5934 26.0351H93.5702V21.5569H95.7417C96.3676 21.5588 96.9696 21.7961 97.4263 22.2208C97.883 22.6456 98.1607 23.2264 98.2033 23.8462V23.8998H98.3449L98.3044 21.2222H90.2926V21.5635H91.0817C91.1967 21.5653 91.3065 21.6119 91.3872 21.6933C91.468 21.7747 91.5133 21.8844 91.5132 21.9987V30.5737C91.5132 30.737 91.4479 30.8937 91.3315 31.0092C91.2152 31.1247 91.0574 31.1895 90.8928 31.1895H90.2656V31.4975H98.4393L98.8305 28.4785H98.6821C98.6821 28.4785 97.9403 31.1092 95.8834 31.1092Z" fill="white"/>
<path d="M108.274 48.1866L104.558 38.6074H102.481V38.7212L102.94 39.7923L99.7631 47.8251C99.6763 48.0443 99.5251 48.2324 99.329 48.365C99.1329 48.4975 98.9011 48.5683 98.6639 48.5681H98.2188V48.7555H101.429V48.6284H101.092C100.943 48.6281 100.798 48.5922 100.666 48.5237C100.535 48.4552 100.423 48.3562 100.339 48.2352C100.254 48.1141 100.201 47.9746 100.183 47.8285C100.165 47.6825 100.183 47.5343 100.235 47.3967L101.206 44.8597H104.855L105.88 47.5373C105.924 47.6519 105.939 47.7754 105.924 47.8971C105.909 48.0188 105.864 48.135 105.794 48.2358C105.723 48.3366 105.629 48.4189 105.52 48.4756C105.41 48.5323 105.289 48.5618 105.165 48.5614H104.612V48.7489H109.704V48.5614H108.841C108.718 48.5662 108.598 48.5325 108.496 48.4652C108.394 48.3979 108.317 48.3004 108.274 48.1866ZM101.247 44.632L103 40.0266L104.76 44.632H101.247Z" fill="white"/>
<path d="M85.1435 38.8216H85.8179C85.9556 38.8187 86.0915 38.8525 86.2116 38.9195C86.3316 38.9865 86.4313 39.0843 86.5002 39.2027C86.5691 39.321 86.6047 39.4556 86.6033 39.5922C86.6019 39.7289 86.5636 39.8627 86.4923 39.9797L84.1858 43.8556L81.785 39.8927C81.7313 39.7928 81.704 39.681 81.7056 39.5678C81.7073 39.4546 81.7378 39.3436 81.7944 39.2453C81.851 39.147 81.9318 39.0646 82.0292 39.0057C82.1266 38.9468 82.2375 38.9134 82.3515 38.9087H82.9247V38.6074H78.4062V38.8886H78.7232C78.7969 38.8895 78.8691 38.9083 78.9338 38.9433C78.9984 38.9783 79.0535 39.0284 79.0941 39.0894L82.2975 44.2103V47.8519C82.2975 48.0294 82.2265 48.1997 82.1 48.3252C81.9735 48.4507 81.802 48.5213 81.6231 48.5213H81.0836V48.7221H85.6088V48.5414H84.9479C84.7691 48.5414 84.5975 48.4708 84.4711 48.3453C84.3446 48.2198 84.2735 48.0495 84.2735 47.872V44.3308L87.4634 38.9756C87.4971 38.9203 87.5446 38.8747 87.6013 38.843C87.6581 38.8113 87.7221 38.7948 87.7872 38.7949H88.1985V38.6074H85.1165L85.1435 38.8216Z" fill="white"/>
<path d="M94.8013 48.4335H93.2637C93.1622 48.4344 93.0615 48.4153 92.9674 48.3773C92.8734 48.3394 92.7878 48.2833 92.7157 48.2124C92.6436 48.1414 92.5864 48.057 92.5473 47.964C92.5083 47.8709 92.4881 47.7711 92.4881 47.6704V43.5669H94.5113C94.8226 43.5704 95.12 43.6952 95.3395 43.9143C95.559 44.1334 95.683 44.4294 95.6848 44.7384V45.1333H95.8669V41.7863H95.7455V42.1879C95.7455 42.4986 95.6211 42.7966 95.3998 43.0163C95.1785 43.236 94.8783 43.3594 94.5653 43.3594H92.5421V38.8811H94.7002C95.3256 38.8846 95.9266 39.1224 96.383 39.5469C96.8394 39.9713 97.1175 40.5512 97.1617 41.1705V41.224H97.3033L97.2629 38.5464H89.2038V38.8878H89.9996C90.1147 38.8895 90.2245 38.9362 90.3052 39.0176C90.386 39.099 90.4312 39.2087 90.4312 39.3229V47.8645C90.4312 48.0278 90.3658 48.1845 90.2495 48.3C90.1331 48.4155 89.9753 48.4803 89.8108 48.4803H89.1836V48.7883H97.3505L97.7417 45.7693H97.5933C97.5933 45.7693 96.8582 48.4335 94.8013 48.4335Z" fill="white"/>
<path d="M118.531 47.2414C118.147 46.7059 116.629 44.3897 116.211 43.7471C117.864 43.2852 118.558 42.2677 118.531 41.2904C118.491 39.9516 117.068 38.6128 114.889 38.6128H110.202V38.8939H110.769C110.928 38.8939 111.081 38.9567 111.193 39.0684C111.306 39.1802 111.369 39.3317 111.369 39.4897V47.9175C111.369 48.0755 111.306 48.227 111.193 48.3387C111.081 48.4505 110.928 48.5132 110.769 48.5132H110.148V48.7007H114.626V48.453H114.067C113.908 48.453 113.755 48.3902 113.642 48.2785C113.53 48.1668 113.467 48.0152 113.467 47.8572V43.9948H114.094C115.047 45.6296 116.115 47.1954 117.29 48.6806H120.298V48.4597C119.556 48.5132 118.976 47.8639 118.531 47.2414ZM113.952 43.7873H113.473V38.9341H114.626C115.739 38.9341 116.495 40.0319 116.522 41.2368C116.548 41.5784 116.499 41.9216 116.38 42.2429C116.26 42.5641 116.071 42.8559 115.827 43.0981C115.583 43.3404 115.289 43.5274 114.966 43.6463C114.642 43.7653 114.296 43.8133 113.952 43.7873Z" fill="white"/>
<path d="M97.7631 17.8554H96.1108V17.7483C96.1108 17.6546 96.1108 17.6412 96.3064 17.6077C96.4126 17.5961 96.5136 17.5555 96.5981 17.4906C96.6826 17.4256 96.7473 17.3387 96.7852 17.2395C96.8459 17.0923 96.8459 16.9182 96.8459 14.1603C96.8459 11.4023 96.8459 11.2283 96.7852 11.1279C96.7348 11.0609 96.6711 11.005 96.598 10.9635C96.5249 10.9221 96.444 10.896 96.3603 10.8869C96.3389 10.8901 96.3171 10.8884 96.2964 10.8818C96.2758 10.8753 96.257 10.8642 96.2413 10.8494C96.2257 10.8345 96.2137 10.8163 96.2063 10.7961C96.1988 10.7759 96.1962 10.7543 96.1985 10.7329C96.1985 10.6392 96.2727 10.6058 96.6166 10.5388L97.6619 10.3246L98.5791 10.1438H98.687V10.4919C98.6731 10.6157 98.6846 10.7409 98.7207 10.8601C98.812 10.7935 98.8957 10.7172 98.9702 10.6325C99.1775 10.3891 99.4623 10.2233 99.7775 10.1624C100.093 10.1015 100.419 10.1493 100.703 10.2978C101.049 10.5112 101.342 10.7995 101.56 11.1412C101.909 11.773 102.077 12.4875 102.046 13.2072C102.015 13.927 101.786 14.6246 101.385 15.2246C101.215 15.4735 100.986 15.6762 100.717 15.8142C100.449 15.9522 100.149 16.0211 99.847 16.0145C99.6753 16.0193 99.5047 15.9863 99.3473 15.9181C99.1899 15.8498 99.0496 15.7478 98.9365 15.6196L98.6938 15.3987C98.6938 15.3987 98.6938 15.8003 98.6938 16.2957C98.6938 17.1525 98.6938 17.1926 98.7814 17.3332C98.837 17.4188 98.9127 17.4897 99.002 17.5398C99.0913 17.59 99.1915 17.6179 99.294 17.6211C99.3573 17.6278 99.4178 17.6509 99.4693 17.688C99.5098 17.7416 99.4693 17.8554 99.4693 17.8688L97.7631 17.8554ZM99.7863 15.2849C100.09 15.0706 100.191 14.5753 100.191 13.2164C100.265 12.5489 100.175 11.8735 99.9279 11.2484C99.8832 11.168 99.8162 11.102 99.735 11.0581C99.6538 11.0143 99.5616 10.9943 99.4693 11.0007C99.1591 11.0007 98.9433 11.168 98.7949 11.563C98.7208 11.7437 98.714 11.7839 98.7073 13.203C98.7073 14.8431 98.7073 14.756 98.9568 15.0573C99.2063 15.3585 99.557 15.4522 99.793 15.2849H99.7863ZM112.283 17.8286C111.765 17.7932 111.257 17.6733 110.779 17.4738C110.593 17.3744 110.432 17.2349 110.307 17.0655C110.244 16.9608 110.218 16.8384 110.233 16.7174C110.233 16.3559 110.347 16.2087 110.779 15.9878C111.035 15.8606 111.082 15.8137 110.995 15.7601C110.742 15.6123 110.558 15.3719 110.482 15.0907C110.444 14.9267 110.45 14.7555 110.5 14.5944C110.55 14.4334 110.641 14.2883 110.766 14.1737C110.916 14.0563 111.091 13.974 111.278 13.9327C111.296 13.9332 111.313 13.9281 111.327 13.918C111.342 13.9079 111.352 13.8934 111.358 13.8768C111.363 13.8601 111.363 13.8422 111.357 13.8257C111.351 13.8092 111.34 13.795 111.325 13.7854L111.062 13.5913C110.704 13.3541 110.447 12.9945 110.338 12.581C110.23 12.1675 110.279 11.7289 110.475 11.3488C110.639 11.0577 110.86 10.8026 111.125 10.5989C111.391 10.3952 111.695 10.2472 112.02 10.1639C112.567 10.0361 113.138 10.05 113.679 10.2041C114.097 10.3219 114.535 10.3583 114.967 10.3112H115.992V10.84H115.419H114.852L115.041 11.1412C115.271 11.4271 115.409 11.7744 115.439 12.1387C115.463 12.3877 115.427 12.6388 115.334 12.8715C115.242 13.1042 115.095 13.3118 114.906 13.4775C114.741 13.6535 114.541 13.7947 114.32 13.8925C113.719 14.1871 113.416 14.2272 112.02 14.167C111.386 14.1335 111.305 14.167 111.305 14.3075C111.305 14.4481 111.305 14.4883 113.058 14.5084C114.657 14.5084 114.711 14.5084 114.933 14.6021C115.215 14.6774 115.472 14.8225 115.682 15.0238C115.775 15.1096 115.85 15.2131 115.902 15.328C115.954 15.443 115.982 15.5672 115.985 15.6932C116.12 16.7308 115.365 17.4939 113.962 17.7014C113.4 17.7615 112.834 17.7816 112.269 17.7617L112.283 17.8286ZM114.07 17.3132C114.32 17.2677 114.553 17.1567 114.744 16.9919C114.803 16.9464 114.851 16.8891 114.885 16.8237C114.919 16.7583 114.939 16.6863 114.943 16.6127C114.947 16.5392 114.934 16.4656 114.907 16.397C114.88 16.3285 114.838 16.2665 114.785 16.2153C114.515 16.0145 114.11 15.9677 112.849 15.9811H111.885L111.71 16.0681C111.163 16.3492 111.217 16.8981 111.824 17.1793C112.558 17.4158 113.342 17.4573 114.097 17.2998L114.07 17.3132ZM113.274 13.7787C113.625 13.6113 113.773 13.1093 113.773 12.132C113.773 11.1547 113.611 10.7597 113.227 10.579C112.843 10.3982 112.411 10.6593 112.236 11.2952C112.152 11.7974 112.134 12.308 112.182 12.8148C112.263 13.3503 112.418 13.6515 112.694 13.7921C112.783 13.8413 112.883 13.8672 112.984 13.8672C113.086 13.8672 113.186 13.8413 113.274 13.7921V13.7787ZM78.7586 16.0078C78.16 15.958 77.5986 15.6996 77.1737 15.2782C76.7212 14.8274 76.4523 14.2267 76.4184 13.5913C76.3648 13.1618 76.4018 12.726 76.527 12.3115C76.6523 11.897 76.8631 11.5129 77.146 11.1837C77.4289 10.8544 77.7777 10.5871 78.1702 10.3989C78.5628 10.2107 78.9905 10.1056 79.4262 10.0903C80.079 10.0735 80.712 10.3142 81.1864 10.7597C81.3515 10.9055 81.4756 11.0913 81.5466 11.299C81.6175 11.5067 81.6328 11.7292 81.591 11.9445C81.5751 12.0607 81.5288 12.1707 81.4566 12.2636C81.3844 12.3564 81.2888 12.4287 81.1796 12.4734C81.0605 12.5409 80.9257 12.5764 80.7885 12.5764C80.6513 12.5764 80.5165 12.5409 80.3973 12.4734C80.0534 12.306 79.9253 12.045 79.8443 11.3823C79.7634 10.7196 79.6825 10.5857 79.2711 10.5857C79.1405 10.5759 79.0102 10.6088 78.9002 10.6794C78.7241 10.7994 78.5738 10.9529 78.4581 11.131C78.3423 11.3091 78.2634 11.5083 78.2258 11.717C78.1623 11.9752 78.144 12.2424 78.1718 12.5069C78.1621 12.925 78.2425 13.3404 78.4079 13.7252C78.5119 14.0313 78.6889 14.308 78.9237 14.5317C79.1585 14.7555 79.4443 14.9197 79.7567 15.0104C79.9018 15.0536 80.0566 15.0536 80.2018 15.0104C80.5107 14.9265 80.7981 14.7782 81.0448 14.5753C81.1117 14.5162 81.1866 14.4666 81.2673 14.428C81.328 14.428 81.4224 14.5753 81.4224 14.6556C81.2101 15.0156 80.9198 15.3242 80.5727 15.5593C80.032 15.9266 79.3752 16.086 78.7248 16.0078H78.7586ZM85.6981 16.0078C85.5064 15.978 85.3252 15.9011 85.1709 15.7842C85.0166 15.6674 84.8942 15.5141 84.8146 15.3384C84.7202 15.084 84.7135 15.084 84.5247 15.2447C84.2393 15.4777 83.9295 15.6797 83.6007 15.8472C83.3634 15.9758 83.095 16.037 82.8249 16.024C82.5548 16.011 82.2935 15.9244 82.0698 15.7735C81.8119 15.5498 81.6435 15.2415 81.5952 14.9049C81.5469 14.5683 81.622 14.2257 81.8068 13.9394C82.0318 13.5983 82.3202 13.303 82.6566 13.0691C83.264 12.6699 83.9186 12.3461 84.6056 12.1052C84.8416 12.0316 84.8484 12.0249 84.8214 11.4961C84.7944 10.9672 84.7337 10.8266 84.4842 10.6928C84.2347 10.5589 84.3021 10.5924 83.9716 10.5924C83.6412 10.5924 83.6075 10.5923 83.4524 10.6861C83.2973 10.7798 83.1152 11.0007 83.1556 11.1412C83.203 11.2511 83.2641 11.3546 83.3377 11.4492C83.4186 11.5498 83.4825 11.6628 83.5266 11.7839C83.621 12.2659 83.1354 12.6809 82.5284 12.6407C81.9215 12.6006 81.7192 12.2458 81.7866 11.6299C81.854 11.0141 82.461 10.4786 83.4389 10.2108C83.7589 10.1353 84.0889 10.1104 84.4168 10.1371C84.7401 10.1097 85.0658 10.1346 85.3812 10.2108C85.6435 10.2529 85.8902 10.3621 86.0972 10.5276C86.3041 10.6931 86.4641 10.9092 86.5613 11.1546C86.5613 11.2149 86.6085 11.9579 86.6153 13.1093C86.6153 14.8832 86.6153 14.9702 86.7029 15.1175C86.7906 15.2648 86.7839 15.2514 86.9053 15.2581C87.0267 15.2648 87.0536 15.2581 87.1211 15.1711C87.1885 15.084 87.283 15.0439 87.3639 15.1309C87.4448 15.2179 87.3976 15.2983 87.202 15.5192C87.0089 15.7238 86.7662 15.8762 86.4971 15.9617C86.228 16.0472 85.9414 16.0631 85.6644 16.0078H85.6981ZM84.2751 14.9435C84.382 14.8881 84.4836 14.8231 84.5786 14.7493L84.7 14.6556V13.5244C84.7 12.9018 84.7 12.3931 84.7 12.3931C84.3984 12.509 84.1249 12.6869 83.8975 12.9152C83.6717 13.1219 83.5021 13.3818 83.4043 13.6708C83.3064 13.9597 83.2835 14.2685 83.3377 14.5686C83.358 14.6658 83.4021 14.7565 83.4663 14.8327C83.5304 14.9089 83.6125 14.9682 83.7052 15.0053C83.798 15.0424 83.8986 15.0562 83.998 15.0454C84.0974 15.0346 84.1926 14.9996 84.2751 14.9435ZM106.159 16.0078C105.909 15.9827 105.673 15.8796 105.485 15.7133C105.331 15.5674 105.222 15.382 105.168 15.1778C105.168 15.0774 105.087 15.1108 104.777 15.3451C104.451 15.5879 104.092 15.7839 103.711 15.9275C103.556 15.9726 103.394 15.9929 103.232 15.9878C103.055 16.0043 102.877 15.9694 102.72 15.8873C102.462 15.7817 102.25 15.5899 102.12 15.3451C102.029 15.1913 101.987 15.0141 101.998 14.8364C101.973 14.5781 102.011 14.3177 102.11 14.0775C102.209 13.8373 102.365 13.6244 102.565 13.4574C102.736 13.2906 102.921 13.1383 103.118 13.0022C103.613 12.6872 104.137 12.4183 104.682 12.1989C104.925 12.1052 105.141 12.0182 105.168 11.9981C105.195 11.978 105.215 11.8977 105.215 11.563C105.215 11.0743 105.161 10.8936 104.966 10.7396C104.873 10.6634 104.765 10.6078 104.648 10.5766C104.532 10.5455 104.41 10.5394 104.291 10.5589C104.164 10.5518 104.037 10.574 103.92 10.624C103.803 10.6739 103.699 10.7502 103.617 10.8468C103.495 11.0208 103.516 11.1413 103.711 11.3956C103.907 11.65 103.934 11.7237 103.934 11.891C103.9 12.1069 103.786 12.3023 103.613 12.4376C103.44 12.573 103.223 12.6384 103.003 12.6206C102.827 12.6274 102.653 12.5777 102.507 12.4789C102.361 12.38 102.252 12.2373 102.194 12.0717C101.944 11.2283 102.733 10.4116 104.042 10.1438C104.548 10.0769 105.06 10.0769 105.566 10.1438C105.855 10.1694 106.131 10.2701 106.368 10.4358C106.605 10.6015 106.793 10.8264 106.915 11.0877C106.996 11.7539 107.021 12.4257 106.989 13.0959C106.989 14.8029 106.989 14.9636 107.063 15.0573C107.137 15.151 107.265 15.2514 107.333 15.2112L107.508 15.0773L107.643 14.9703L107.717 15.0506C107.805 15.1443 107.805 15.1644 107.609 15.3987C107.432 15.6197 107.198 15.7904 106.933 15.8938C106.668 15.9972 106.38 16.0296 106.099 15.9878L106.159 16.0078ZM104.77 14.9234C104.878 14.8724 104.98 14.8095 105.074 14.736L105.161 14.649V12.3864H105.087C104.739 12.5397 104.43 12.7685 104.183 13.0558C104.003 13.26 103.874 13.5032 103.806 13.766C103.739 14.0287 103.734 14.3037 103.792 14.5686C103.927 15.0439 104.298 15.1778 104.77 14.9234ZM88.3552 15.9409H87.0064V15.8472C87.0064 15.7601 87.0064 15.7401 87.0536 15.7401C87.2271 15.6933 87.3763 15.5833 87.4718 15.4321C87.5118 15.3398 87.5412 15.2432 87.5594 15.1443C87.6067 14.9033 87.6067 11.1613 87.5594 10.994C87.532 10.9065 87.4831 10.827 87.4172 10.7628C87.3513 10.6985 87.2704 10.6515 87.1818 10.6258C87.0469 10.6258 86.9795 10.512 87.0132 10.4116C87.0469 10.3112 87.0739 10.3514 88.2406 10.3514H89.4545V10.7329C89.4545 10.9471 89.4545 11.148 89.4545 11.1815C89.4545 11.2149 89.5219 11.1814 89.7108 10.9873C89.9585 10.7135 90.265 10.4985 90.6077 10.3581C90.7936 10.2832 90.9947 10.2533 91.1945 10.271C91.3748 10.2555 91.5564 10.2784 91.7272 10.338C91.927 10.4218 92.1059 10.5479 92.2515 10.7075C92.3971 10.867 92.5059 11.0562 92.5702 11.2618C92.5853 11.3352 92.6177 11.404 92.6646 11.4626C92.7437 11.3908 92.8139 11.3099 92.8737 11.2216C93.0422 10.9487 93.2752 10.7207 93.5526 10.5574C93.8299 10.3941 94.1432 10.3004 94.4653 10.2844C94.7564 10.2743 95.0442 10.3487 95.2934 10.4986C95.5425 10.6484 95.7422 10.8671 95.868 11.1279C96.0771 11.5161 96.1108 11.8776 96.1108 13.685C96.1108 14.5017 96.1108 15.1777 96.1445 15.2849C96.1464 15.3724 96.1761 15.457 96.2294 15.5268C96.2827 15.5965 96.3569 15.6477 96.4413 15.6731L96.6301 15.7467C96.6841 15.7869 96.6841 15.9677 96.6301 15.9677H93.7841C93.7841 15.9677 93.7841 15.9677 93.7437 15.9074C93.7365 15.8863 93.7341 15.8639 93.7365 15.8418C93.739 15.8196 93.7462 15.7983 93.7577 15.7792C93.7693 15.7601 93.7848 15.7438 93.8033 15.7312C93.8219 15.7187 93.8429 15.7103 93.865 15.7066C93.9355 15.701 94.0034 15.6779 94.0623 15.6392C94.1213 15.6006 94.1694 15.5478 94.2022 15.4857C94.3417 14.6452 94.378 13.7911 94.3102 12.9419C94.3241 12.4461 94.3083 11.9499 94.263 11.4559C94.2384 11.3738 94.1943 11.2987 94.1345 11.2369C94.0746 11.1752 94.0008 11.1286 93.919 11.1011C93.602 11.0074 93.1974 11.2818 92.9007 11.8107L92.7456 12.0717V13.3369C92.6904 14.0479 92.7244 14.7629 92.8467 15.4656C92.8754 15.5249 92.9168 15.5773 92.9681 15.6189C93.0194 15.6605 93.0792 15.6905 93.1435 15.7066C93.2008 15.7192 93.2513 15.7527 93.2851 15.8003C93.2851 15.8606 93.2851 15.9677 93.2379 15.9677H90.4728V15.8539C90.4728 15.7401 90.4728 15.7333 90.6212 15.6597C90.6761 15.6382 90.726 15.6057 90.7678 15.5642C90.8095 15.5228 90.8423 15.4733 90.864 15.4187L90.9449 15.2581V13.3637C90.9449 11.4893 90.9449 11.476 90.8775 11.3555C90.6752 10.9204 90.1694 11.0007 89.731 11.5429C89.4141 11.9312 89.4343 11.7839 89.4478 13.685C89.4478 15.2782 89.4478 15.3585 89.522 15.4857C89.5717 15.5858 89.6588 15.6626 89.7647 15.6999C89.9603 15.7936 90.0277 15.9074 89.9198 15.9811C89.8883 16.0087 89.8472 16.0231 89.8052 16.0212H88.3957L88.3552 15.9409ZM107.508 15.8806C107.468 15.7668 107.508 15.7267 107.684 15.6263C107.795 15.5755 107.887 15.4911 107.946 15.3853L108.027 15.238V13.2298C108.027 12.132 108.027 11.1748 108.027 11.0944C107.994 10.8534 107.791 10.6928 107.441 10.6191C107.413 10.6146 107.388 10.6008 107.37 10.58C107.351 10.5593 107.341 10.533 107.34 10.5053C107.34 10.2844 107.218 10.3045 108.607 10.3045H109.862V12.6474C109.862 14.2473 109.862 15.0506 109.902 15.1711C109.923 15.279 109.973 15.379 110.049 15.4595C110.124 15.5401 110.22 15.5978 110.327 15.6263C110.496 15.6731 110.509 15.6932 110.523 15.7869C110.536 15.8806 110.523 15.894 110.482 15.9074C110.442 15.9208 109.808 15.9074 108.985 15.9074H107.542L107.508 15.8806ZM116.221 15.9275C116.134 15.8405 116.221 15.6798 116.376 15.633C116.532 15.5861 116.586 15.4121 116.619 15.1309C116.619 14.9702 116.619 14.1603 116.619 12.9687C116.619 11.1078 116.619 11.061 116.538 10.9271C116.477 10.8265 116.388 10.7453 116.282 10.6928C116.107 10.5857 116.093 10.5723 116.093 10.4518V10.3179H118.467V10.6928C118.467 10.9337 118.467 11.0743 118.467 11.081C118.467 11.0877 118.582 11.0007 118.676 10.8936C118.922 10.6137 119.223 10.386 119.56 10.2242C119.719 10.1706 119.884 10.139 120.052 10.1305C120.402 10.0872 120.756 10.1702 121.049 10.3644C121.343 10.5585 121.556 10.8509 121.65 11.1881C121.792 11.5898 121.799 11.6902 121.819 13.4775C121.839 15.2648 121.819 15.2045 121.913 15.3384C122.008 15.4723 122.136 15.6129 122.21 15.6129C122.284 15.6129 122.257 15.6597 122.257 15.7601V15.9074H119.6C119.533 15.9074 119.519 15.9074 119.512 15.7735C119.506 15.6397 119.512 15.633 119.641 15.5593C119.725 15.5151 119.797 15.4506 119.85 15.3719C119.917 15.2581 119.917 15.2112 119.917 13.2967C119.917 11.3823 119.917 11.3354 119.856 11.2149C119.817 11.1412 119.765 11.0753 119.701 11.0208C119.621 10.9827 119.534 10.963 119.445 10.963C119.356 10.963 119.269 10.9827 119.189 11.0208C118.958 11.1664 118.761 11.3579 118.609 11.5831L118.447 11.8107V13.444C118.414 14.0423 118.43 14.6423 118.494 15.238C118.519 15.321 118.562 15.3977 118.619 15.4634C118.676 15.5291 118.746 15.5823 118.825 15.6196C118.858 15.6272 118.887 15.6461 118.908 15.673C118.929 15.6998 118.94 15.7329 118.939 15.7668C118.939 15.8405 118.939 15.8806 118.899 15.894C118.858 15.9074 116.201 15.894 116.161 15.894L116.221 15.9275ZM108.682 10.1305C108.458 10.058 108.272 9.90193 108.162 9.69536C108.085 9.57356 108.05 9.43039 108.061 9.28703C108.062 9.12134 108.108 8.95897 108.195 8.81742C108.281 8.67587 108.406 8.56049 108.553 8.48374C108.677 8.40419 108.825 8.37095 108.972 8.39001C109.099 8.37837 109.228 8.39861 109.346 8.44889C109.463 8.49916 109.567 8.57786 109.646 8.67785C109.811 8.8476 109.904 9.07441 109.904 9.31044C109.904 9.54648 109.811 9.77329 109.646 9.94303C109.528 10.0578 109.381 10.1384 109.221 10.1762C109.06 10.214 108.893 10.2074 108.736 10.1572L108.682 10.1305Z" fill="white"/>
<path d="M31.9726 50.1333L35.5806 61.145H47.2342L37.8061 67.9461L41.4074 78.9511L31.9726 72.15L22.5377 78.9511L26.1458 67.9461L16.7109 61.145H28.3713L31.9726 50.1333Z" fill="#D0B02B"/>
<path d="M129.551 57.3503C129.545 58.0446 129.462 58.7361 129.302 59.412C129.248 59.7802 129.349 60.309 129.066 60.4831C128.782 60.6571 128.29 60.55 127.885 60.55H121.951C121.768 60.586 121.579 60.5625 121.411 60.4831C121.526 60.2823 121.735 60.3157 121.904 60.2756C122.092 60.2443 122.262 60.1436 122.38 59.9935C122.497 59.8434 122.554 59.6549 122.537 59.4656C122.537 56.8951 122.537 54.3246 122.537 51.7541C122.537 51.3123 122.403 50.9842 121.863 50.8905C121.715 50.8905 121.506 50.8905 121.344 50.6562H125.727C125.727 50.7968 125.64 50.8169 125.552 50.8303C124.689 50.9843 124.655 51.0244 124.655 51.908V59.0974C124.655 60.0547 124.851 60.1818 125.822 60.2689C127.751 60.4362 128.519 59.2514 129.113 58.0464C129.221 57.7927 129.369 57.5577 129.551 57.3503Z" fill="#D0B02B"/>
<path d="M87.8901 57.8984C87.6004 58.5964 87.1688 59.2276 86.6222 59.7526C85.8534 60.422 84.916 60.335 83.9988 60.2547C83.9022 60.2488 83.8076 60.2237 83.721 60.1808C83.6343 60.1379 83.5571 60.0782 83.4942 60.0051C83.4313 59.932 83.3838 59.8471 83.3546 59.7554C83.3254 59.6637 83.3152 59.5671 83.3244 59.4714V51.5524C83.3122 51.4054 83.356 51.2592 83.4471 51.1427C83.5383 51.0262 83.6702 50.9478 83.8167 50.9232C84.0191 50.8629 84.2888 50.9566 84.4507 50.6621H79.9727C80.384 51.0035 80.9978 50.8161 81.1259 51.3717C81.1259 54.1742 81.1259 56.9813 81.1259 59.7928C80.9775 60.3283 80.4515 60.2747 80.0468 60.4622C80.1952 60.6764 80.3841 60.5894 80.5392 60.5894C82.7782 60.5894 85.0239 60.5894 87.2832 60.5894C87.6945 60.5894 87.8766 60.5023 87.8766 60.0538C87.907 59.7109 87.9634 59.3708 88.0452 59.0363C88.1262 58.5209 88.2003 58.0054 88.2745 57.4565C87.9508 57.5101 87.9643 57.7444 87.8901 57.8984Z" fill="#D0B02B"/>
<path d="M74.6382 55.9512C74.6625 55.9941 74.6964 56.031 74.7373 56.0588C74.7782 56.0867 74.8251 56.1049 74.8742 56.1119C75.7172 56.2926 75.7576 56.3394 75.7576 57.1695C75.7576 57.9996 75.7576 58.8029 75.7576 59.6195C75.7576 60.0948 75.5621 60.289 75.1642 60.376C74.5637 60.5567 73.9164 60.5036 73.3539 60.2276C72.7915 59.9515 72.356 59.4732 72.1361 58.8899C71.6569 57.8817 71.3984 56.7841 71.3775 55.6696C71.3565 54.555 71.5737 53.4487 72.0147 52.4235C72.1645 52.0111 72.4177 51.6434 72.7505 51.3553C73.0833 51.0671 73.4846 50.868 73.9165 50.7767C74.5586 50.6527 75.2242 50.7615 75.7922 51.0834C76.3603 51.4052 76.7931 51.9187 77.012 52.5306C77.1806 52.892 77.2818 53.2736 77.4167 53.6418C77.4861 52.9925 77.5221 52.34 77.5246 51.6871C77.5353 51.5597 77.5034 51.4323 77.434 51.3247C77.3645 51.217 77.2612 51.135 77.1402 51.0914C76.5575 50.7848 75.9211 50.5916 75.2653 50.5223C73.2422 50.3215 71.4347 50.8169 70.1466 52.5306C69.2977 53.7385 68.9544 55.2265 69.189 56.6809C69.3111 57.7982 69.8646 58.8251 70.7334 59.5459C71.3212 60.0317 72.0133 60.3774 72.7566 60.5567C73.4349 60.7264 74.1384 60.774 74.8337 60.6973C75.7235 60.6137 76.5889 60.3615 77.383 59.9542C77.5154 59.9039 77.6265 59.81 77.6977 59.6881C77.7689 59.5663 77.7958 59.424 77.7741 59.2848C77.7741 58.5217 77.7741 57.7519 77.7741 56.9888C77.7741 56.4867 77.9359 56.1587 78.4889 56.0985C78.6306 56.0985 78.8329 56.0985 78.961 55.9044L74.6382 55.9512Z" fill="#D0B02B"/>
<path d="M107.263 55.6968C106.892 55.5629 106.514 55.4826 106.022 55.342C107.256 54.9604 108.234 54.4584 108.47 53.1731C108.51 53.0059 108.51 52.8316 108.47 52.6644C108.391 52.2753 108.22 51.9105 107.971 51.6C107.418 51.0245 106.661 50.6858 105.86 50.6562C104.154 50.5022 102.441 50.6562 100.728 50.5892C100.613 50.5892 100.478 50.5424 100.391 50.7164C100.748 50.9775 101.389 50.7164 101.551 51.3457C101.582 51.408 101.598 51.4768 101.598 51.5465V59.5793C101.598 59.6504 101.584 59.721 101.557 59.7868C101.409 60.3826 100.775 60.242 100.404 60.5298C102.555 60.4763 104.7 60.7842 106.824 60.4027C107.232 60.3397 107.619 60.1866 107.959 59.9549C108.299 59.7232 108.582 59.4187 108.787 59.0639C109.542 57.725 108.895 56.2725 107.263 55.6968ZM104.039 50.8771C104.896 50.8771 105.718 51.0042 106.13 51.8544C106.359 52.2861 106.465 52.7718 106.437 53.2591C106.408 53.7463 106.246 54.2166 105.968 54.619C105.706 54.9022 105.374 55.1129 105.005 55.2303C104.636 55.3476 104.243 55.3677 103.864 55.2884C103.668 55.2215 103.722 55.0809 103.715 54.9604V53.0325C103.715 52.4301 103.715 51.8209 103.715 51.2185C103.702 50.9574 103.79 50.8838 104.039 50.8771ZM106.642 59.412C106.389 59.7998 106.008 60.0889 105.564 60.2304C105.121 60.3719 104.642 60.357 104.208 60.1884C104.052 60.1448 103.917 60.0471 103.828 59.9132C103.739 59.7793 103.702 59.618 103.722 59.4588C103.722 58.2606 103.722 57.0624 103.722 55.8641C103.722 55.2818 104.221 55.7369 104.397 55.5763C106.629 55.5896 107.721 57.4908 106.642 59.412Z" fill="#D0B02B"/>
<path d="M95.0056 50.5153C94.2439 50.3674 93.4562 50.4247 92.7244 50.6813C91.9926 50.938 91.3435 51.3846 90.8445 51.9746C90.1242 52.8142 89.6613 53.8412 89.5107 54.9338C89.3601 56.0265 89.5281 57.1391 89.9948 58.1399C90.4498 59.1962 91.3066 60.0315 92.3789 60.464C93.4512 60.8965 94.6521 60.8912 95.7204 60.4493C96.7205 60.0657 97.5738 59.3798 98.1596 58.4884C98.7454 57.597 99.034 56.5454 98.9845 55.4823C99.0048 53.039 97.6425 50.8634 95.0056 50.5153ZM96.1318 59.0436C96.0245 59.3585 95.8476 59.6457 95.6143 59.8842C95.381 60.1228 95.097 60.3067 94.783 60.4225C94.3742 60.5362 93.9383 60.5056 93.5497 60.3359C93.1611 60.1662 92.8438 59.868 92.6519 59.4921C92.2316 58.7903 91.9672 58.0075 91.8764 57.196C91.6392 55.7018 91.7289 54.1744 92.1394 52.7177C92.2541 52.2984 92.4412 51.902 92.6924 51.5463C92.8445 51.2892 93.0609 51.0754 93.3206 50.9256C93.5802 50.7757 93.8745 50.6949 94.1748 50.6908C94.4751 50.6868 94.7715 50.7597 95.0351 50.9025C95.2988 51.0453 95.5209 51.2532 95.68 51.5061C96.2611 52.3796 96.5942 53.3925 96.6444 54.4381C96.6916 54.8464 96.6916 55.2681 96.7051 55.5359C96.7577 56.7317 96.5626 57.9256 96.1318 59.0436Z" fill="#D0B02B"/>
<path d="M116.698 60.2547C116.469 60.3685 116.172 60.3015 115.882 60.5291H120.401C119.605 60.4019 119.429 59.7928 119.207 59.1903C118.586 57.5168 117.912 55.8433 117.298 54.1965C116.867 52.9983 116.347 51.8403 115.997 50.6219C115.236 50.488 114.458 50.488 113.697 50.6219C113.697 50.8094 113.785 50.9433 113.859 51.0905C113.991 51.2874 114.046 51.5255 114.014 51.7599C113.798 52.4293 113.549 53.0318 113.306 53.6677C112.807 55.0065 112.306 56.3453 111.802 57.6841C111.559 58.3535 111.316 59.0229 111.08 59.6455C110.892 60.1743 110.406 60.268 109.961 60.509H112.935C112.78 60.3149 112.584 60.3818 112.409 60.3483C111.735 60.2279 111.418 59.9132 111.606 59.3576C111.871 58.4894 112.193 57.6396 112.571 56.8139H115.97C116.32 57.7109 116.685 58.6012 117.029 59.4915C117.19 59.8664 117.015 60.094 116.698 60.2547ZM115.572 56.4524C114.729 56.4524 113.893 56.4524 113.05 56.4524C112.726 56.4524 112.712 56.332 112.807 56.0709C113.292 54.7856 113.758 53.5004 114.277 52.0946C114.817 53.5138 115.309 54.8258 115.821 56.1111C115.97 56.4391 115.801 56.4591 115.572 56.4524Z" fill="#D0B02B"/>
</svg>
