<svg width="60" height="60" viewBox="0 0 60 60" fill="none" xmlns="http://www.w3.org/2000/svg">
<path d="M24.6172 2.94043C29.9689 1.87591 35.5164 2.42269 40.5576 4.51074C45.5988 6.59886 49.9079 10.135 52.9394 14.6719C55.971 19.2089 57.5888 24.5434 57.5889 30C57.5804 37.3145 54.6712 44.3268 49.499 49.499C44.3267 54.6713 37.3138 57.5796 29.999 57.5879C24.5427 57.5877 19.2086 55.9708 14.6719 52.9395C10.135 49.9079 6.59884 45.5988 4.51073 40.5576C2.42268 35.5164 1.8759 29.9689 2.94041 24.6172C4.005 19.2655 6.63284 14.3496 10.4912 10.4912C14.3495 6.63286 19.2655 4.00501 24.6172 2.94043ZM40.5371 15.3545C41.1101 15.1498 41.7295 15.1117 42.3232 15.2451C42.9169 15.3785 43.4603 15.6782 43.8906 16.1084C44.3209 16.5386 44.6203 17.0821 44.7539 17.6758C44.8874 18.2694 44.8501 18.8889 44.6455 19.4619L39.1279 34.9111C38.7811 35.8824 38.2234 36.7649 37.4941 37.4941C36.7649 38.2234 35.8824 38.7811 34.9111 39.1279L19.4629 44.6455C18.8898 44.8503 18.2705 44.8883 17.6767 44.7549C17.0828 44.6214 16.5388 44.322 16.1084 43.8916C15.678 43.4612 15.3786 42.9171 15.2451 42.3232C15.1284 41.8037 15.1425 41.2645 15.2851 40.7539L15.3545 40.5371L20.8721 25.0889C21.2189 24.1176 21.7766 23.2351 22.5058 22.5059C23.2351 21.7766 24.1176 21.2189 25.0889 20.8721L40.5371 15.3545ZM31.6396 26.041C30.8566 25.7167 29.9953 25.6316 29.164 25.7969C28.3327 25.9622 27.5691 26.3704 26.9697 26.9697C26.3703 27.5691 25.9622 28.3327 25.7969 29.1641C25.6315 29.9953 25.7167 30.8566 26.041 31.6396C26.3654 32.4228 26.9143 33.0926 27.6191 33.5635C28.3239 34.0343 29.1524 34.2861 30 34.2861C31.1366 34.2861 32.2265 33.834 33.0303 33.0303C33.834 32.2265 34.2861 31.1366 34.2861 30C34.2861 29.1524 34.0343 28.3239 33.5635 27.6191C33.0925 26.9144 32.4227 26.3654 31.6396 26.041ZM54.9111 29.999C54.9034 23.3949 52.2762 17.0634 47.6064 12.3936C42.9366 7.72374 36.6051 5.09657 30.001 5.08887H30C25.0731 5.08887 20.2567 6.54991 16.1601 9.28711C12.0637 12.0243 8.87078 15.915 6.98534 20.4668C5.09995 25.0185 4.60726 30.0273 5.56834 34.8594C6.52953 39.6916 8.90191 44.1304 12.3857 47.6143C15.8696 51.0981 20.3084 53.4705 25.1406 54.4316C29.9727 55.3927 34.9815 54.9 39.5332 53.0146C44.0849 51.1292 47.9757 47.9363 50.7129 43.8398C53.4501 39.7433 54.9111 34.9269 54.9111 30V29.999Z" fill="#00AA71" stroke="#00AA71" stroke-width="1.07143"/>
</svg>
