<svg width="70" height="70" viewBox="0 0 70 70" fill="none" xmlns="http://www.w3.org/2000/svg">
<path d="M50.1006 44.3457C52.5812 46.6491 54.5691 49.4315 55.9443 52.5247C57.3195 55.618 58.0534 58.9579 58.1016 62.3427C58.101 62.8292 57.9619 63.3054 57.7007 63.7157C57.4394 64.1261 57.0667 64.4536 56.6262 64.6599C56.1856 64.8662 55.6955 64.9428 55.213 64.8808C54.7305 64.8188 54.2756 64.6207 53.9016 64.3097L44.1016 56.0007" fill="#00AA71"/>
<path d="M55.4944 65.9822C54.6322 65.9792 53.7999 65.6662 53.1494 65.1002L43.3984 56.7632L44.7984 55.1672L54.5144 63.5112C54.7342 63.7029 55.0047 63.827 55.2934 63.8685C55.582 63.91 55.8765 63.8672 56.1414 63.7451C56.4063 63.623 56.6302 63.427 56.7861 63.1805C56.9421 62.9341 57.0235 62.6478 57.0204 62.3562C56.9796 59.1146 56.2811 55.9151 54.9672 52.9515C53.6532 49.9879 51.7512 47.3219 49.3764 45.1152L50.7764 43.5752C53.3621 45.9692 55.4349 48.8631 56.8692 52.0818C58.3034 55.3005 59.0693 58.7768 59.1204 62.3002C59.1299 62.9964 58.9363 63.6803 58.5633 64.2683C58.1904 64.8563 57.6543 65.323 57.0204 65.6112C56.5441 65.8425 56.0238 65.9691 55.4944 65.9822Z" fill="#00AA71"/>
<path d="M18.902 44.3457C15.575 47.4702 13.1561 51.4372 11.902 55.8257C11.2988 57.9464 10.981 60.138 10.957 62.3427C10.9576 62.8292 11.0966 63.3054 11.3579 63.7157C11.6192 64.1261 11.9919 64.4536 12.4324 64.6599C12.873 64.8662 13.3631 64.9428 13.8456 64.8808C14.3281 64.8188 14.783 64.6207 15.157 64.3097L24.915 56.0007" fill="#00AA71"/>
<path d="M13.5303 65.9822C12.9957 65.9824 12.4676 65.8653 11.9833 65.6392C11.3483 65.3524 10.8112 64.8861 10.4381 64.2978C10.0649 63.7095 9.87206 63.0248 9.88328 62.3282C9.92704 58.8021 10.6867 55.3217 12.1162 52.098C13.5457 48.8744 15.6153 45.9748 18.1993 43.5752L19.6343 45.1152C16.4294 48.0987 14.1008 51.9014 12.9003 56.1122C12.3206 58.1438 12.0146 60.2437 11.9903 62.3562C11.9884 62.6465 12.0702 62.9312 12.2258 63.1763C12.3815 63.4214 12.6044 63.6165 12.8679 63.7383C13.1314 63.8601 13.4245 63.9035 13.712 63.8632C13.9995 63.8229 14.2693 63.7007 14.4893 63.5112L24.2263 55.1672L25.6263 56.7632L15.8753 65.1002C15.2248 65.6662 14.3925 65.9792 13.5303 65.9822Z" fill="#00AA71"/>
<path d="M34.5127 1.50293C35.2759 1.50298 36.0283 1.68601 36.707 2.03516C37.3856 2.3843 37.9713 2.88993 38.415 3.51074L38.416 3.51172L41.083 7.15918V7.1582C41.3434 7.51709 41.5995 7.85712 41.8496 8.23926L41.8506 8.24121C48.7178 18.3469 51.6022 30.6366 49.9473 42.7422V42.7432L48.9668 50.2119V50.2129C48.7703 51.7815 48.0081 53.2249 46.8232 54.2715C45.6384 55.318 44.1121 55.8962 42.5312 55.8975H26.4941C24.9181 55.8961 23.396 55.3223 22.2109 54.2832C21.0259 53.244 20.2579 51.8095 20.0508 50.2471L19.0781 42.7432V42.7422L18.9355 41.6064C17.6 29.8701 20.514 18.028 27.1729 8.24121L27.1738 8.24219C27.4187 7.88848 27.6851 7.53893 27.9414 7.1582L27.9424 7.15918L30.6094 3.51172V3.51074C31.0532 2.88975 31.6396 2.38434 32.3184 2.03516C32.9971 1.68601 33.7494 1.50293 34.5127 1.50293Z" fill="#00AA71" stroke="#3C3C3C" stroke-width="0.205882"/>
<path d="M42.5352 57.0151H26.4982C24.6401 57.0158 22.8452 56.3408 21.4478 55.1161C20.0505 53.8913 19.1461 52.2003 18.9032 50.3581L17.9232 42.8891C16.2198 30.4967 19.181 17.9133 26.2322 7.58113C26.4842 7.21013 26.7502 6.83913 27.0162 6.47513L29.6762 2.80013C30.2326 2.03927 30.9605 1.42037 31.801 0.993725C32.6414 0.567081 33.5707 0.344727 34.5132 0.344727C35.4558 0.344727 36.385 0.567081 37.2255 0.993725C38.066 1.42037 38.7939 2.03927 39.3502 2.80013L42.0032 6.47513C42.2692 6.83913 42.5282 7.21013 42.7872 7.58113C49.8409 17.9124 52.8047 30.4958 51.1032 42.8891L50.1232 50.3581C49.8805 52.1991 48.9772 53.8892 47.5813 55.1138C46.1854 56.3384 44.3921 57.0141 42.5352 57.0151ZM34.5132 2.47113C33.9011 2.46764 33.297 2.61069 32.7514 2.88834C32.2059 3.166 31.7347 3.57018 31.3772 4.06713L28.7032 7.70013L27.9472 8.76413C21.1986 18.6747 18.3744 30.7399 20.0232 42.6161L21.0032 50.0851C21.1796 51.4201 21.8347 52.6457 22.8466 53.534C23.8586 54.4224 25.1587 54.9132 26.5052 54.9151H42.5352C43.8793 54.9044 45.1747 54.4105 46.1848 53.5238C47.195 52.637 47.8525 51.4165 48.0372 50.0851L49.0032 42.6161C50.6458 30.7436 47.8193 18.6843 41.0722 8.77813C40.8272 8.42113 40.5752 8.07813 40.3232 7.71413L37.6562 4.06713C37.2973 3.57006 36.8248 3.1659 36.2781 2.8883C35.7314 2.61069 35.1264 2.46767 34.5132 2.47113Z" fill="#00AA71"/>
<path d="M32.6748 16.0557C34.4857 15.6937 36.3634 15.8763 38.0703 16.5811C39.7772 17.2859 41.2367 18.4815 42.2646 20.0156C43.2925 21.5496 43.8429 23.3537 43.8457 25.2002C43.8457 27.6786 42.8616 30.0557 41.1104 31.8096C39.3591 33.5634 36.9833 34.55 34.5049 34.5537C32.6585 34.5536 30.8538 34.0069 29.3184 32.9814C27.7827 31.9558 26.5853 30.4978 25.8779 28.792C25.1706 27.0861 24.9845 25.2089 25.3438 23.3975C25.703 21.586 26.5916 19.922 27.8965 18.6152C29.2013 17.3085 30.864 16.4176 32.6748 16.0557ZM34.5059 17.7549C33.0332 17.7549 31.5936 18.1916 30.3691 19.0098C29.1447 19.8279 28.1896 20.9901 27.626 22.3506C27.0624 23.7112 26.9148 25.2089 27.2021 26.6533C27.4895 28.0977 28.1989 29.4245 29.2402 30.4658C30.2815 31.5071 31.6085 32.2156 33.0527 32.5029C34.4969 32.7902 35.9941 32.6435 37.3545 32.0801C38.7151 31.5165 39.8781 30.5614 40.6963 29.3369C41.5144 28.1125 41.9512 26.6728 41.9512 25.2002C41.9474 23.2279 41.1616 21.3376 39.7656 19.9443C38.3939 18.5753 36.5435 17.7972 34.6084 17.7705V17.7549H34.5059Z" fill="black" stroke="#3C3C3C" stroke-width="0.205882"/>
<path d="M34.5107 57.957C34.7618 57.957 35.0031 58.0569 35.1807 58.2344C35.3582 58.4119 35.458 58.6532 35.458 58.9043V65.6943C35.458 65.9455 35.3583 66.1867 35.1807 66.3643C35.0031 66.5419 34.7619 66.6416 34.5107 66.6416C34.2596 66.6415 34.0184 66.5418 33.8408 66.3643C33.6633 66.1867 33.5635 65.9454 33.5635 65.6943V58.9043C33.5635 58.6532 33.6633 58.4119 33.8408 58.2344C34.0184 58.0568 34.2596 57.9571 34.5107 57.957Z" fill="white" stroke="#3C3C3C" stroke-width="0.205882"/>
<path d="M29.6123 61.3525C29.8634 61.3525 30.1046 61.4524 30.2822 61.6299C30.4598 61.8074 30.5595 62.0487 30.5596 62.2998V68.334C30.5541 68.5811 30.452 68.8162 30.2754 68.9893C30.0983 69.1628 29.8602 69.2598 29.6123 69.2598C29.3612 69.2597 29.1199 69.16 28.9424 68.9824C28.7651 68.805 28.6652 68.5643 28.665 68.3135V62.2998C28.6651 62.0487 28.7648 61.8074 28.9424 61.6299C29.1199 61.4523 29.3612 61.3526 29.6123 61.3525Z" fill="white" stroke="#3C3C3C" stroke-width="0.205882"/>
<path d="M39.4092 61.3525C39.6603 61.3525 39.9015 61.4524 40.0791 61.6299C40.2567 61.8074 40.3564 62.0487 40.3564 62.2998V68.334C40.351 68.5811 40.2489 68.8162 40.0723 68.9893C39.8952 69.1628 39.6571 69.2598 39.4092 69.2598C39.1581 69.2597 38.9168 69.16 38.7393 68.9824C38.562 68.805 38.462 68.5643 38.4619 68.3135V62.2998C38.462 62.0487 38.5617 61.8074 38.7393 61.6299C38.9168 61.4523 39.1581 61.3526 39.4092 61.3525Z" fill="white" stroke="#3C3C3C" stroke-width="0.205882"/>
</svg>
