<svg width="183" height="53" viewBox="0 0 183 53" fill="none" xmlns="http://www.w3.org/2000/svg">
<g clip-path="url(#clip0_1_2082)">
<path d="M35.7035 48.5809L12.1695 12.9097L0.289048 12.8191L23.8231 48.4902L35.7035 48.5809Z" fill="#00AA71"/>
<path d="M24.0974 13.0008L23.9622 30.7237L35.9779 13.0915L24.0974 13.0008Z" fill="#00AA71"/>
<path d="M0.0229401 48.3079L11.9034 48.3986L19.9138 36.6438L13.7297 28.1941L0.0229401 48.3079Z" fill="#00AA71"/>
<path d="M91.9832 38.7708C88.331 38.7429 87.8947 38.2582 87.9274 33.9697L88.0119 22.8984L97.4723 22.9705L97.544 13.5621L88.0837 13.4899L88.1411 5.96316L76.9207 5.87754L76.685 36.7722C76.6125 46.2682 79.4106 48.6527 90.763 48.7394L97.2752 48.789L97.3514 38.8117L91.9832 38.7708Z" fill="white"/>
<path d="M112.36 13.6751L112.31 20.1954C113.356 15.6958 116.54 13.707 122.436 13.752L126.528 13.7832L126.452 23.7605L118.489 23.5685C114.133 23.4915 112.272 25.184 112.242 29.0787L112.091 48.8583L100.871 48.7727L101.139 13.5895L112.36 13.6751Z" fill="white"/>
<path d="M141.71 13.8988L130.49 13.8131L130.219 49.2151L141.44 49.3008L141.71 13.8988Z" fill="white"/>
<path d="M145.534 31.5196C145.646 16.8599 149.414 13.2126 164.199 13.3254C178.147 13.4319 181.688 16.5661 181.989 28.9532L170.197 28.8632C170.023 22.8226 169.412 22.1615 164.176 22.1216C158.104 22.0752 157.437 22.9892 157.371 31.5662C157.306 40.1431 157.959 41.0671 164.031 41.1135C169.223 41.1531 169.8 40.4573 170.155 34.3332L181.948 34.4232C181.544 46.9363 177.912 50.0157 163.92 49.9089C149.091 49.8833 145.422 46.223 145.534 31.5196Z" fill="white"/>
<path d="M61.1028 12.5837C56.7467 12.5505 52.9452 14.7971 50.763 18.194L50.8011 13.2053L39.6247 13.12L39.3559 48.347L48.7722 48.4188L50.5763 48.4326L50.7362 27.4715C50.7596 24.4083 53.2867 21.9331 56.3669 21.9566C59.447 21.9801 61.936 24.4936 61.9127 27.5568L61.7527 48.5179L72.9731 48.6035L73.1554 24.7105C73.1622 18.0586 67.7911 12.6348 61.1028 12.5837Z" fill="white"/>
<path d="M142.076 6.37479C142.051 9.61304 139.391 12.2185 136.135 12.1937C132.879 12.1688 130.259 9.52305 130.283 6.2848C130.308 3.04655 132.968 0.441081 136.224 0.465928C139.48 0.490776 142.1 3.13653 142.076 6.37479Z" fill="white"/>
</g>
<defs>
<clipPath id="clip0_1_2082">
<rect width="181.776" height="50.8973" fill="white" transform="translate(0.388429) rotate(0.437212)"/>
</clipPath>
</defs>
</svg>
