<svg width="60" height="60" viewBox="0 0 60 60" fill="none" xmlns="http://www.w3.org/2000/svg">
<g clip-path="url(#clip0_25_1037)">
<path fill-rule="evenodd" clip-rule="evenodd" d="M45.6143 34.5081C45.2789 35.6713 44.8138 36.793 44.2277 37.8522L45.4012 40.1554C45.7761 40.8914 45.6405 41.7481 45.0563 42.3322L42.3319 45.0568C41.7478 45.6409 40.8912 45.7766 40.1551 45.4016L37.8518 44.228C36.7926 44.8141 35.6709 45.2792 34.5078 45.6147L33.7096 48.0714C33.4543 48.857 32.7526 49.3669 31.9265 49.3669H28.0735C27.2474 49.3669 26.5456 48.8571 26.2904 48.0715L25.4922 45.6147C24.329 45.2793 23.2072 44.8142 22.148 44.2281L19.8449 45.4016C19.1088 45.7767 18.2521 45.6409 17.668 45.0568L14.9435 42.3322C14.3593 41.7481 14.2237 40.8915 14.5986 40.1554L15.7723 37.8521C15.1862 36.7929 14.721 35.6712 14.3855 34.5081L11.9289 33.7099C11.1432 33.4546 10.6334 32.7529 10.6334 31.9267V28.0737C10.6334 27.2477 11.1432 26.5458 11.9287 26.2905L14.3855 25.4923C14.721 24.3292 15.1861 23.2074 15.7721 22.1482L14.5986 19.8451C14.2236 19.1089 14.3593 18.2523 14.9435 17.6682L17.6679 14.9436C18.252 14.3595 19.1088 14.2239 19.8447 14.5988L22.148 15.7725C23.2072 15.1864 24.3289 14.7212 25.492 14.3857L26.2902 11.929C26.5455 11.1434 27.2472 10.6336 28.0733 10.6336H31.9263C32.7524 10.6336 33.4542 11.1433 33.7093 11.929L34.5076 14.3861C35.6707 14.7215 36.7923 15.1865 37.8514 15.7725L40.1548 14.5988C40.8909 14.2237 41.7476 14.3595 42.3317 14.9436L45.0562 17.6681C45.6404 18.2522 45.776 19.1088 45.401 19.8449L44.2275 22.1481C44.8136 23.2073 45.2787 24.3291 45.6141 25.4922L48.0709 26.2904C48.8566 26.5457 49.3664 27.2474 49.3664 28.0734V31.9265C49.3664 32.7526 48.8567 33.4542 48.0709 33.7096L45.6141 34.5078L45.6143 34.5081ZM8.81985 15.2927L11.2789 17.7517L13.7498 7.27817L3.27637 9.74912L5.7966 12.2694C-2.82503 24.0076 -1.82948 40.5984 8.78607 51.2139C18.3386 60.7665 32.7296 62.5291 44.0693 56.5046L40.9267 53.3619C31.3764 57.828 19.6534 56.1188 11.7674 48.2327C2.8025 39.2679 1.82182 25.3455 8.81985 15.2927ZM46.2495 52.7224L56.7231 50.2514L54.2037 47.732C62.8254 35.994 61.829 19.4024 51.2134 8.78675C41.6608 -0.765916 27.2697 -2.52857 15.93 3.49599L19.0726 6.63866C28.6229 2.17257 40.3459 3.88179 48.2321 11.7678C57.1969 20.7327 58.1785 34.6557 51.1801 44.7084L48.7203 42.2487L46.2494 52.7223L46.2495 52.7224ZM33.7653 26.2349C31.6858 24.1554 28.3142 24.1554 26.2346 26.2349C24.1551 28.3145 24.1551 31.6861 26.2346 33.7656C28.3142 35.8452 31.6858 35.8452 33.7653 33.7656C35.8448 31.6861 35.8448 28.3145 33.7653 26.2349ZM37.6574 22.3428C33.4283 18.1138 26.5716 18.1138 22.3425 22.3428C18.1134 26.5719 18.1134 33.4286 22.3425 37.6577C26.5716 41.8868 33.4283 41.8868 37.6574 37.6577C41.8865 33.4286 41.8865 26.5719 37.6574 22.3428Z" fill="#00AA71"/>
</g>
<defs>
<clipPath id="clip0_25_1037">
<rect width="60" height="60" fill="white"/>
</clipPath>
</defs>
</svg>
