<svg width="60" height="60" viewBox="0 0 60 60" fill="none" xmlns="http://www.w3.org/2000/svg">
<g clip-path="url(#clip0_25_1027)">
<path d="M58.2422 0H51.0938C50.1221 0 49.3359 0.786211 49.3359 1.75781V3.51562H34.9496C34.2216 1.47398 32.2887 0 30 0C27.7113 0 25.7784 1.47398 25.0504 3.51562H10.6641V1.75781C10.6641 0.786211 9.87785 0 8.90625 0H1.75781C0.786211 0 0 0.786211 0 1.75781V8.78906C0 9.76066 0.786211 10.5469 1.75781 10.5469H8.90625C9.87785 10.5469 10.6641 9.76066 10.6641 8.78906V7.00781H17.8833C11.7829 10.8189 7.76039 17.5125 7.27957 25.0096C5.17043 25.6999 3.63281 27.6633 3.63281 30C3.63281 32.9079 5.99836 35.2734 8.90625 35.2734C11.8141 35.2734 14.1797 32.9079 14.1797 30C14.1797 27.757 12.7663 25.85 10.7883 25.089C11.388 16.7306 17.2202 9.68578 25.3328 7.67578C26.2102 9.3723 27.9618 10.5469 30 10.5469C32.0382 10.5469 33.7898 9.3723 34.6672 7.67578C42.7798 9.68566 48.612 16.7305 49.2117 25.0889C47.2337 25.85 45.8203 27.757 45.8203 30C45.8203 32.9079 48.1859 35.2734 51.0938 35.2734C54.0016 35.2734 56.3672 32.9079 56.3672 30C56.3672 27.6633 54.8296 25.6999 52.7204 25.0096C52.2396 17.5125 48.2171 10.8423 42.1167 7.03125H49.3359V8.78906C49.3359 9.76066 50.1221 10.5469 51.0938 10.5469H58.2422C59.2138 10.5469 60 9.76066 60 8.78906V1.75781C60 0.786211 59.2138 0 58.2422 0ZM41.959 57.8197C41.0395 55.0062 38.3906 52.8516 35.2734 52.8516H24.7266C21.6094 52.8516 18.9605 55.0062 18.041 57.8197C17.6865 58.9045 18.6094 60 19.7508 60H40.2492C41.3905 60 42.3135 58.9045 41.959 57.8197Z" fill="#00AA71"/>
<path d="M45.525 36.0567L31.7578 15.4058V32.082C33.7995 32.8101 35.2735 34.743 35.2735 37.0317C35.2735 39.9396 32.9079 42.3051 30 42.3051C27.0921 42.3051 24.7266 39.9396 24.7266 37.0317C24.7266 34.743 26.2006 32.8101 28.2422 32.082V15.4058L14.475 36.0567C14.0098 36.7536 14.1025 37.6823 14.6947 38.2745C17.9217 41.5015 19.9845 45.6588 20.7805 50.1181C22.0016 49.6227 23.3297 49.3363 24.7266 49.3363H35.2735C36.6703 49.3363 37.9984 49.6226 39.2195 50.1179C40.0156 45.6583 42.0783 41.5015 45.3053 38.2745C45.8976 37.6823 45.9903 36.7536 45.525 36.0567Z" fill="#00AA71"/>
<path d="M30 35.2734C29.0302 35.2734 28.2422 36.0614 28.2422 37.0312C28.2422 38.0011 29.0302 38.7891 30 38.7891C30.9698 38.7891 31.7578 38.0011 31.7578 37.0312C31.7578 36.0614 30.9698 35.2734 30 35.2734Z" fill="#00AA71"/>
</g>
<defs>
<clipPath id="clip0_25_1027">
<rect width="60" height="60" fill="white"/>
</clipPath>
</defs>
</svg>
